<?xml version="1.0" encoding="utf-8"?><svg xmlns="http://www.w3.org/2000/svg" xmlns:xlink="http://www.w3.org/1999/xlink"><symbol viewBox="0 0 512.001 512.001" id="chat" xmlns="http://www.w3.org/2000/svg"><path d="M477.846 302.812l-1.608.536c22.507-25.336 35.763-56.393 35.763-89.957 0-85.321-85.634-154.485-191.268-154.485-105.635 0-191.268 69.165-191.268 154.485S215.1 367.877 320.734 367.877c36.956 0 71.455-8.474 100.705-23.134l70.071 40.041-13.664-81.972z" fill="#ff5023"/><path d="M320.732 58.906c-105.635 0-191.268 69.165-191.268 154.485s85.634 154.485 191.268 154.485" fill="#d80027"/><ellipse cx="191.27" cy="282.642" rx="191.27" ry="154.488" fill="#ffda44"/><path d="M191.268 128.158C85.634 128.158 0 197.322 0 282.643c0 35.474 14.814 68.15 39.704 94.228L27 453.095l66.172-37.814c28.683 13.871 62.234 21.849 98.096 21.849V128.158z" fill="#ff9811"/><circle cx="191.27" cy="255.672" r="79.911" fill="#fff"/><path d="M144.832 255.677c0-38.39 27.075-70.444 63.174-78.138a80.174 80.174 0 0 0-16.736-1.769c-44.133 0-79.909 35.775-79.909 79.907s35.775 79.909 79.909 79.909c5.742 0 11.336-.619 16.736-1.769-36.099-7.695-63.174-39.75-63.174-78.14z" fill="#fff0b4"/><path d="M167.088 349.218v16.12c0 13.354 10.824 24.181 24.181 24.181 13.354 0 24.181-10.827 24.181-24.181v-16.12h-48.362z" fill="#818085"/><path d="M167.088 349.218v16.12c0 13.354 10.824 24.181 24.181 24.181v-40.301h-24.181z" fill="#565659"/><path fill="#dedde0" d="M154.994 326.9h72.543v35.381h-72.543z"/><path fill="#bdbcc1" d="M154.994 326.9h36.309v35.381h-36.309z"/></symbol><symbol viewBox="0 0 40 40" id="facebook" xmlns="http://www.w3.org/2000/svg"><use xlink:href="#bpath0_fill" fill="#FFF"/><defs><path id="bpath0_fill" d="M27.51 39.967V24.5h5.154c.259-2.019.518-4.005.783-6.037h-5.93c-.006-.127-.013-.213-.013-.3 0-1.18-.013-2.352.007-3.531.006-.453.046-.92.172-1.346.3-1.033.976-1.506 2.165-1.553 1.13-.04 2.258-.047 3.387-.067h.405v-5.41c-.75-.053-1.5-.127-2.245-.153-1.368-.047-2.742-.147-4.104.1-2.55.46-4.429 1.805-5.418 4.27-.479 1.18-.585 2.433-.598 3.692-.013 1.3 0 2.599 0 3.898v.4h-5.167v6.03h5.154V39.98c-.12.007-.226.013-.332.013-4.45 0-8.899-.027-13.348.007-3.54.026-6.336-2.399-7.192-5.15-.213-.68-.352-1.414-.359-2.12a4099.66 4099.66 0 0 1-.02-25.56c.007-1.98.837-3.645 2.245-5.031C3.75.679 5.543 0 7.622 0c8.214.007 16.422-.007 24.637.007 3.24.006 5.512 1.586 6.946 4.437.478.953.644 2.006.644 3.066 0 8.329.014 16.658-.006 24.987-.007 3.585-2.43 6.563-5.924 7.33-.485.106-.99.146-1.48.153-1.561.02-3.122.007-4.683.007a11.774 11.774 0 0 0-.245-.02z"/></defs></symbol><symbol viewBox="0 0 40 40" id="facebook" xmlns="http://www.w3.org/2000/svg"><use xlink:href="#cpath0_fill" fill="#FFF"/><defs><path id="cpath0_fill" d="M27.51 39.967V24.5h5.154c.259-2.019.518-4.005.783-6.037h-5.93c-.006-.127-.013-.213-.013-.3 0-1.18-.013-2.352.007-3.531.006-.453.046-.92.172-1.346.3-1.033.976-1.506 2.165-1.553 1.13-.04 2.258-.047 3.387-.067h.405v-5.41c-.75-.053-1.5-.127-2.245-.153-1.368-.047-2.742-.147-4.104.1-2.55.46-4.429 1.805-5.418 4.27-.479 1.18-.585 2.433-.598 3.692-.013 1.3 0 2.599 0 3.898v.4h-5.167v6.03h5.154V39.98c-.12.007-.226.013-.332.013-4.45 0-8.899-.027-13.348.007-3.54.026-6.336-2.399-7.192-5.15-.213-.68-.352-1.414-.359-2.12a4099.66 4099.66 0 0 1-.02-25.56c.007-1.98.837-3.645 2.245-5.031C3.75.679 5.543 0 7.622 0c8.214.007 16.422-.007 24.637.007 3.24.006 5.512 1.586 6.946 4.437.478.953.644 2.006.644 3.066 0 8.329.014 16.658-.006 24.987-.007 3.585-2.43 6.563-5.924 7.33-.485.106-.99.146-1.48.153-1.561.02-3.122.007-4.683.007a11.774 11.774 0 0 0-.245-.02z"/></defs></symbol><symbol viewBox="0 0 57 57" id="facebook_onBlue" xmlns="http://www.w3.org/2000/svg"><use xlink:href="#dpath0_fill" transform="translate(.1)" fill="#2D9CDB"/><defs><path id="dpath0_fill" d="M39.148 56.952V34.914h7.333c.37-2.877.738-5.707 1.116-8.603h-8.44c-.009-.18-.018-.304-.018-.427 0-1.68-.019-3.352.01-5.032.009-.646.066-1.31.245-1.919.425-1.471 1.39-2.145 3.08-2.212 1.607-.057 3.214-.066 4.82-.095h.577v-7.71c-1.068-.076-2.136-.18-3.194-.218-1.947-.067-3.903-.21-5.84.142-3.63.655-6.304 2.573-7.712 6.087-.68 1.68-.831 3.465-.85 5.26-.02 1.851 0 3.703 0 5.554v.57h-7.352v8.593h7.333v22.067c-.17.01-.321.02-.473.02-6.331 0-12.663-.039-18.994.009-5.037.038-9.015-3.419-10.234-7.34-.303-.969-.501-2.013-.51-3.02a5850.145 5850.145 0 0 1-.03-36.423c.01-2.82 1.192-5.194 3.195-7.169C5.336.968 7.888 0 10.846 0c11.69.01 23.37-.01 35.06.01 4.61.009 7.843 2.26 9.884 6.323.68 1.358.916 2.858.916 4.368 0 11.87.02 23.738-.009 35.607-.01 5.108-3.459 9.353-8.43 10.445-.69.152-1.408.209-2.107.218-2.22.029-4.441.01-6.662.01-.104-.01-.217-.02-.35-.029z"/></defs></symbol><symbol viewBox="0 0 57 57" id="facebook_onBlue" xmlns="http://www.w3.org/2000/svg"><use xlink:href="#epath0_fill" transform="translate(.1)" fill="#2D9CDB"/><defs><path id="epath0_fill" d="M39.148 56.952V34.914h7.333c.37-2.877.738-5.707 1.116-8.603h-8.44c-.009-.18-.018-.304-.018-.427 0-1.68-.019-3.352.01-5.032.009-.646.066-1.31.245-1.919.425-1.471 1.39-2.145 3.08-2.212 1.607-.057 3.214-.066 4.82-.095h.577v-7.71c-1.068-.076-2.136-.18-3.194-.218-1.947-.067-3.903-.21-5.84.142-3.63.655-6.304 2.573-7.712 6.087-.68 1.68-.831 3.465-.85 5.26-.02 1.851 0 3.703 0 5.554v.57h-7.352v8.593h7.333v22.067c-.17.01-.321.02-.473.02-6.331 0-12.663-.039-18.994.009-5.037.038-9.015-3.419-10.234-7.34-.303-.969-.501-2.013-.51-3.02a5850.145 5850.145 0 0 1-.03-36.423c.01-2.82 1.192-5.194 3.195-7.169C5.336.968 7.888 0 10.846 0c11.69.01 23.37-.01 35.06.01 4.61.009 7.843 2.26 9.884 6.323.68 1.358.916 2.858.916 4.368 0 11.87.02 23.738-.009 35.607-.01 5.108-3.459 9.353-8.43 10.445-.69.152-1.408.209-2.107.218-2.22.029-4.441.01-6.662.01-.104-.01-.217-.02-.35-.029z"/></defs></symbol><symbol viewBox="0 0 40 40" id="github" xmlns="http://www.w3.org/2000/svg"><use xlink:href="#fpath0_fill" transform="translate(10.64 19.5)" fill="#FFF"/><use xlink:href="#fpath1_fill" fill="#FFF"/><defs><path id="fpath0_fill" d="M16.86.66c-.827-.604-1.779-.73-2.77-.629-1.102.113-2.192.302-3.295.378C9.83.47 8.84.484 7.875.42 6.759.346 5.644.144 4.528.044a5.302 5.302 0 0 0-1.478.05C1.77.333.957 1.164.43 2.321-.033 3.364-.096 4.458.117 5.566c.263 1.396.978 2.49 2.243 3.182 1.153.617 2.394.906 3.685.994 1.078.075 2.156.075 3.233.113v-.063c.865 0 1.73.013 2.594 0a11.007 11.007 0 0 0 3.547-.666c1.291-.466 2.256-1.296 2.757-2.592.527-1.37.54-2.754 0-4.125A3.657 3.657 0 0 0 16.86.66zM5.557 6.786c-.601.704-1.491.755-2.155.126a2.69 2.69 0 0 1-.715-1.17c-.363-1.182-.3-2.327.364-3.409.25-.402.589-.717 1.065-.83.602-.126 1.065.1 1.454.54.589.68.764 1.498.802 2.366-.038.868-.226 1.685-.815 2.377zm9.788-.025c-.652.767-1.654.78-2.306 0-.652-.793-.852-1.71-.777-2.705.05-.742.276-1.434.777-2.012.664-.767 1.654-.767 2.319 0 .576.68.764 1.497.802 2.365-.05.868-.238 1.673-.815 2.352z"/><path id="fpath1_fill" d="M32.748 0H7.106C3.196 0 0 3.208 0 7.132v25.736C0 36.792 3.196 40 7.106 40h25.642c3.91 0 7.106-3.208 7.106-7.132V7.132C39.854 3.208 36.658 0 32.748 0zm-.502 24.78c-.413 1.71-1.353 3.044-2.794 4.038-1.153.792-2.444 1.207-3.785 1.497-1.805.39-3.635.478-5.477.465a37.73 37.73 0 0 1-4.462-.24 13.862 13.862 0 0 1-4.674-1.395c-1.742-.88-2.895-2.302-3.384-4.189-.564-2.201-.664-4.428-.063-6.641a7.95 7.95 0 0 1 1.554-2.994c.113-.126.113-.24.075-.39-.426-1.472-.463-2.969-.05-4.453.113-.377.276-.742.414-1.12.037-.113.113-.15.238-.15 1.216.025 2.356.301 3.396.968.702.453 1.379.93 2.056 1.409a.406.406 0 0 0 .376.075 18.986 18.986 0 0 1 5.84-.44c.927.076 1.842.252 2.757.403.138.025.226.012.338-.076.903-.692 1.83-1.346 2.87-1.811.828-.378 1.705-.503 2.607-.516.063 0 .15.05.176.113a7.382 7.382 0 0 1 .727 3.321 8.127 8.127 0 0 1-.364 2.327c-.037.113-.012.189.063.277 1.115 1.358 1.717 2.943 1.905 4.68a15.342 15.342 0 0 1-.339 4.842z"/></defs></symbol><symbol viewBox="0 0 40 40" id="github" xmlns="http://www.w3.org/2000/svg"><use xlink:href="#gpath0_fill" transform="translate(10.64 19.5)" fill="#FFF"/><use xlink:href="#gpath1_fill" fill="#FFF"/><defs><path id="gpath0_fill" d="M16.86.66c-.827-.604-1.779-.73-2.77-.629-1.102.113-2.192.302-3.295.378C9.83.47 8.84.484 7.875.42 6.759.346 5.644.144 4.528.044a5.302 5.302 0 0 0-1.478.05C1.77.333.957 1.164.43 2.321-.033 3.364-.096 4.458.117 5.566c.263 1.396.978 2.49 2.243 3.182 1.153.617 2.394.906 3.685.994 1.078.075 2.156.075 3.233.113v-.063c.865 0 1.73.013 2.594 0a11.007 11.007 0 0 0 3.547-.666c1.291-.466 2.256-1.296 2.757-2.592.527-1.37.54-2.754 0-4.125A3.657 3.657 0 0 0 16.86.66zM5.557 6.786c-.601.704-1.491.755-2.155.126a2.69 2.69 0 0 1-.715-1.17c-.363-1.182-.3-2.327.364-3.409.25-.402.589-.717 1.065-.83.602-.126 1.065.1 1.454.54.589.68.764 1.498.802 2.366-.038.868-.226 1.685-.815 2.377zm9.788-.025c-.652.767-1.654.78-2.306 0-.652-.793-.852-1.71-.777-2.705.05-.742.276-1.434.777-2.012.664-.767 1.654-.767 2.319 0 .576.68.764 1.497.802 2.365-.05.868-.238 1.673-.815 2.352z"/><path id="gpath1_fill" d="M32.748 0H7.106C3.196 0 0 3.208 0 7.132v25.736C0 36.792 3.196 40 7.106 40h25.642c3.91 0 7.106-3.208 7.106-7.132V7.132C39.854 3.208 36.658 0 32.748 0zm-.502 24.78c-.413 1.71-1.353 3.044-2.794 4.038-1.153.792-2.444 1.207-3.785 1.497-1.805.39-3.635.478-5.477.465a37.73 37.73 0 0 1-4.462-.24 13.862 13.862 0 0 1-4.674-1.395c-1.742-.88-2.895-2.302-3.384-4.189-.564-2.201-.664-4.428-.063-6.641a7.95 7.95 0 0 1 1.554-2.994c.113-.126.113-.24.075-.39-.426-1.472-.463-2.969-.05-4.453.113-.377.276-.742.414-1.12.037-.113.113-.15.238-.15 1.216.025 2.356.301 3.396.968.702.453 1.379.93 2.056 1.409a.406.406 0 0 0 .376.075 18.986 18.986 0 0 1 5.84-.44c.927.076 1.842.252 2.757.403.138.025.226.012.338-.076.903-.692 1.83-1.346 2.87-1.811.828-.378 1.705-.503 2.607-.516.063 0 .15.05.176.113a7.382 7.382 0 0 1 .727 3.321 8.127 8.127 0 0 1-.364 2.327c-.037.113-.012.189.063.277 1.115 1.358 1.717 2.943 1.905 4.68a15.342 15.342 0 0 1-.339 4.842z"/></defs></symbol><symbol viewBox="0 0 57 57" id="github_onBlue" xmlns="http://www.w3.org/2000/svg"><use xlink:href="#hpath0_fill" transform="translate(15.1 27.8)" fill="#2D9CDB"/><use xlink:href="#hpath1_fill" fill="#2D9CDB"/><defs><path id="hpath0_fill" d="M23.993.94C22.816.08 21.461-.098 20.052.045c-1.57.162-3.121.43-4.69.538-1.374.09-2.783.108-4.156.018C9.619.493 8.03.206 6.444.062A7.537 7.537 0 0 0 4.34.134C2.52.474 1.36 1.658.612 3.307-.048 4.794-.137 6.354.167 7.93c.374 1.99 1.39 3.55 3.192 4.535 1.64.879 3.406 1.29 5.243 1.416 1.534.108 3.068.108 4.601.162v-.09c1.23 0 2.461.018 3.692 0a15.645 15.645 0 0 0 5.047-.95c1.837-.663 3.21-1.846 3.924-3.693.749-1.953.766-3.925 0-5.879a5.21 5.21 0 0 0-1.873-2.49zM7.907 9.67c-.856 1.004-2.123 1.075-3.068.18a3.834 3.834 0 0 1-1.016-1.668c-.518-1.685-.428-3.316.517-4.857.356-.574.838-1.022 1.516-1.183.856-.18 1.516.143 2.068.77.839.968 1.088 2.133 1.142 3.37-.054 1.237-.321 2.402-1.16 3.388zm13.928-.036c-.927 1.093-2.354 1.111-3.281 0-.928-1.13-1.213-2.438-1.106-3.854.071-1.057.392-2.043 1.106-2.868.945-1.093 2.354-1.093 3.299 0 .82.968 1.088 2.133 1.141 3.37-.071 1.237-.339 2.384-1.159 3.352z"/><path id="hpath1_fill" d="M46.6 0H10.113C4.548 0 0 4.57 0 10.163v36.674C0 52.429 4.548 57 10.112 57h36.489c5.564 0 10.112-4.57 10.112-10.163V10.163C56.713 4.571 52.165 0 46.6 0zm-.713 35.311c-.588 2.438-1.926 4.338-3.977 5.754-1.64 1.13-3.477 1.72-5.386 2.133-2.568.556-5.172.681-7.793.663-2.123 0-4.245-.09-6.35-.34a19.703 19.703 0 0 1-6.651-1.99c-2.48-1.255-4.12-3.28-4.816-5.969-.802-3.136-.945-6.31-.089-9.464a11.335 11.335 0 0 1 2.212-4.266c.16-.18.16-.34.107-.556-.607-2.097-.66-4.23-.072-6.345.16-.538.393-1.057.589-1.595.053-.162.16-.215.339-.215 1.73.036 3.353.43 4.833 1.38a82.478 82.478 0 0 1 2.925 2.008c.178.125.32.16.535.107a26.984 26.984 0 0 1 8.31-.627c1.32.107 2.622.358 3.924.573.196.036.32.018.481-.107 1.284-.986 2.604-1.918 4.084-2.581 1.178-.538 2.426-.717 3.71-.735.09 0 .214.071.25.161a10.533 10.533 0 0 1 1.034 4.732 11.594 11.594 0 0 1-.517 3.316c-.054.161-.018.269.089.395 1.587 1.935 2.443 4.194 2.71 6.667.197 2.33.054 4.625-.48 6.901z"/></defs></symbol><symbol viewBox="0 0 57 57" id="github_onBlue" xmlns="http://www.w3.org/2000/svg"><use xlink:href="#ipath0_fill" transform="translate(15.1 27.8)" fill="#2D9CDB"/><use xlink:href="#ipath1_fill" fill="#2D9CDB"/><defs><path id="ipath0_fill" d="M23.993.94C22.816.08 21.461-.098 20.052.045c-1.57.162-3.121.43-4.69.538-1.374.09-2.783.108-4.156.018C9.619.493 8.03.206 6.444.062A7.537 7.537 0 0 0 4.34.134C2.52.474 1.36 1.658.612 3.307-.048 4.794-.137 6.354.167 7.93c.374 1.99 1.39 3.55 3.192 4.535 1.64.879 3.406 1.29 5.243 1.416 1.534.108 3.068.108 4.601.162v-.09c1.23 0 2.461.018 3.692 0a15.645 15.645 0 0 0 5.047-.95c1.837-.663 3.21-1.846 3.924-3.693.749-1.953.766-3.925 0-5.879a5.21 5.21 0 0 0-1.873-2.49zM7.907 9.67c-.856 1.004-2.123 1.075-3.068.18a3.834 3.834 0 0 1-1.016-1.668c-.518-1.685-.428-3.316.517-4.857.356-.574.838-1.022 1.516-1.183.856-.18 1.516.143 2.068.77.839.968 1.088 2.133 1.142 3.37-.054 1.237-.321 2.402-1.16 3.388zm13.928-.036c-.927 1.093-2.354 1.111-3.281 0-.928-1.13-1.213-2.438-1.106-3.854.071-1.057.392-2.043 1.106-2.868.945-1.093 2.354-1.093 3.299 0 .82.968 1.088 2.133 1.141 3.37-.071 1.237-.339 2.384-1.159 3.352z"/><path id="ipath1_fill" d="M46.6 0H10.113C4.548 0 0 4.57 0 10.163v36.674C0 52.429 4.548 57 10.112 57h36.489c5.564 0 10.112-4.57 10.112-10.163V10.163C56.713 4.571 52.165 0 46.6 0zm-.713 35.311c-.588 2.438-1.926 4.338-3.977 5.754-1.64 1.13-3.477 1.72-5.386 2.133-2.568.556-5.172.681-7.793.663-2.123 0-4.245-.09-6.35-.34a19.703 19.703 0 0 1-6.651-1.99c-2.48-1.255-4.12-3.28-4.816-5.969-.802-3.136-.945-6.31-.089-9.464a11.335 11.335 0 0 1 2.212-4.266c.16-.18.16-.34.107-.556-.607-2.097-.66-4.23-.072-6.345.16-.538.393-1.057.589-1.595.053-.162.16-.215.339-.215 1.73.036 3.353.43 4.833 1.38a82.478 82.478 0 0 1 2.925 2.008c.178.125.32.16.535.107a26.984 26.984 0 0 1 8.31-.627c1.32.107 2.622.358 3.924.573.196.036.32.018.481-.107 1.284-.986 2.604-1.918 4.084-2.581 1.178-.538 2.426-.717 3.71-.735.09 0 .214.071.25.161a10.533 10.533 0 0 1 1.034 4.732 11.594 11.594 0 0 1-.517 3.316c-.054.161-.018.269.089.395 1.587 1.935 2.443 4.194 2.71 6.667.197 2.33.054 4.625-.48 6.901z"/></defs></symbol><symbol viewBox="0 0 12 10" id="heart" xmlns="http://www.w3.org/2000/svg"><use xlink:href="#jpath0_fill" fill="#FFF"/><defs><path id="jpath0_fill" d="M5.898 1.316a.12.12 0 0 0 .157.007c.372-.275.729-.54 1.097-.793l.007-.005C8.323-.282 9.972-.063 10.887.6l.022.016c.654.488.958 1.151 1.061 1.931l.002.017c.137 1.088-.254 2.005-.96 2.806l-.024.029c-.5.557-1.062 1.073-1.611 1.594l-.01.01c-.983.93-1.972 1.847-2.961 2.77a2.353 2.353 0 0 0-.034.033c-.07.068.07-.068 0 0a.973.973 0 0 1-.112.098c-.18.129-.354.129-.53-.014-.03-.025-.058-.052-.087-.078-.467-.431-.93-.874-1.398-1.31a14.288 14.288 0 0 1-.018-.018c-.916-.858-1.838-1.711-2.742-2.57l-.004-.004C.851 5.31.34 4.63.118 3.788a2.775 2.775 0 0 1-.015-.058c-.225-.937-.091-1.826.491-2.62a3.92 3.92 0 0 1 .028-.037c.368-.488.889-.78 1.49-.934l.02-.005c.861-.218 1.71-.195 2.485.258l.056.034c.427.256.806.58 1.21.877a.147.147 0 0 1 .015.013z"/></defs></symbol><symbol viewBox="0 0 12 10" id="heart" xmlns="http://www.w3.org/2000/svg"><use xlink:href="#kpath0_fill" fill="#FFF"/><defs><path id="kpath0_fill" d="M5.898 1.316a.12.12 0 0 0 .157.007c.372-.275.729-.54 1.097-.793l.007-.005C8.323-.282 9.972-.063 10.887.6l.022.016c.654.488.958 1.151 1.061 1.931l.002.017c.137 1.088-.254 2.005-.96 2.806l-.024.029c-.5.557-1.062 1.073-1.611 1.594l-.01.01c-.983.93-1.972 1.847-2.961 2.77a2.353 2.353 0 0 0-.034.033c-.07.068.07-.068 0 0a.973.973 0 0 1-.112.098c-.18.129-.354.129-.53-.014-.03-.025-.058-.052-.087-.078-.467-.431-.93-.874-1.398-1.31a14.288 14.288 0 0 1-.018-.018c-.916-.858-1.838-1.711-2.742-2.57l-.004-.004C.851 5.31.34 4.63.118 3.788a2.775 2.775 0 0 1-.015-.058c-.225-.937-.091-1.826.491-2.62a3.92 3.92 0 0 1 .028-.037c.368-.488.889-.78 1.49-.934l.02-.005c.861-.218 1.71-.195 2.485.258l.056.034c.427.256.806.58 1.21.877a.147.147 0 0 1 .015.013z"/></defs></symbol><symbol viewBox="0 0 512 512" id="people-chat" xmlns="http://www.w3.org/2000/svg"><path d="M132.414 273.655c-64.249 0-78.854 69.988-79.448 147.096-.024 3.209 1.942 6.098 4.956 7.448 10.321 4.623 23.936 8.292 37.899 10.676l72.969.038c14.05-2.383 27.743-6.067 38.116-10.713 3.014-1.351 4.98-4.239 4.956-7.448-.595-77.108-15.199-147.097-79.448-147.097z" fill="#7d5a50"/><path d="M220.69 494.345v-11.114a26.482 26.482 0 0 0-13.344-22.994l-39.554-22.602a17.656 17.656 0 0 1-8.896-15.329v-16.237h-52.964v16.237a17.656 17.656 0 0 1-8.896 15.329l-39.553 22.602a26.482 26.482 0 0 0-13.344 22.994v11.114c0 9.751 7.904 17.655 17.655 17.655h141.241c9.751 0 17.655-7.904 17.655-17.655z" fill="#d29b6e"/><path d="M176.552 344.276v46.798a26.486 26.486 0 0 1-12.857 22.709l-22.197 13.319a17.658 17.658 0 0 1-18.167 0l-22.197-13.319a26.481 26.481 0 0 1-12.857-22.709v-46.798s52.966 0 70.621-17.655l17.654 17.655z" fill="#f0c087"/><g fill="#e4eaf6"><path d="M207.347 460.237l-25.77-14.726c-4.868 6.908-23.315 31.06-49.163 40.006-25.848-8.946-44.295-33.098-49.163-40.006l-25.769 14.726a26.482 26.482 0 0 0-13.344 22.994v11.114c0 9.751 7.904 17.655 17.655 17.655h141.241c9.751 0 17.655-7.904 17.655-17.655v-11.114a26.482 26.482 0 0 0-13.342-22.994zM264.828 44.138H52.966c-19.421 0-35.31 15.89-35.31 35.31v123.586c0 19.421 15.89 35.31 35.31 35.31h114.759v33.482c0 3.933 4.755 5.901 7.534 3.121l36.604-36.602h52.966c19.421 0 35.31-15.89 35.31-35.31V79.448c-.001-19.42-15.891-35.31-35.311-35.31z"/></g><path d="M211.862 44.138v114.759c0 19.421 15.89 35.31 35.31 35.31h52.966v8.828c0 3.066-.532 5.99-1.283 8.828h-51.682c-29.205 0-52.966-23.761-52.966-52.966V44.138h17.655z" fill="#d7deed"/><path d="M176.552 123.586c0-29.207-23.758-52.966-52.966-52.966S70.62 94.378 70.62 123.586v26.483c0 29.207 23.758 52.966 52.966 52.966 11.422 0 21.981-3.67 30.642-9.842l7.255 7.255c1.725 1.725 3.982 2.586 6.241 2.586s4.518-.862 6.241-2.586a8.825 8.825 0 0 0 0-12.483l-7.255-7.255c6.172-8.66 9.842-19.219 9.842-30.641v-26.483zm-24.656 42.311c-3.448-3.448-9.035-3.448-12.483 0s-3.448 9.035 0 12.483l1.997 1.997c-5.25 3.101-11.295 5.002-17.824 5.002-19.474 0-35.31-15.84-35.31-35.31v-26.483c0-19.47 15.837-35.31 35.31-35.31s35.31 15.84 35.31 35.31v26.483c0 6.529-1.902 12.573-5.003 17.824l-1.997-1.996z" fill="#707487"/><path d="M247.172 0h211.862c19.421 0 35.31 15.89 35.31 35.31v123.586c0 19.421-15.89 35.31-35.31 35.31H344.276v33.482c0 3.933-4.755 5.901-7.534 3.121l-36.604-36.602h-52.966c-19.421 0-35.31-15.89-35.31-35.31V35.31c0-19.42 15.89-35.31 35.31-35.31z" fill="#fad24d"/><path d="M468.333 443.763l-41.981-15.743c-6.891-2.584-11.456-10.73-11.456-18.089h-70.621c0 7.359-4.565 15.505-11.456 18.089l-41.981 15.743a26.484 26.484 0 0 0-17.184 24.797v25.785c0 9.751 7.904 17.655 17.655 17.655h176.552c9.751 0 17.655-7.904 17.655-17.655V468.56a26.481 26.481 0 0 0-17.183-24.797z" fill="#d29b6e"/><path d="M468.333 443.763l-33.955-12.733-43.489 36.241a17.653 17.653 0 0 1-22.605 0l-43.489-36.241-33.955 12.733a26.484 26.484 0 0 0-17.184 24.797v25.785c0 9.751 7.904 17.655 17.655 17.655h176.552c9.751 0 17.655-7.904 17.655-17.655V468.56a26.486 26.486 0 0 0-17.185-24.797z" fill="#fad24d"/><path d="M438.869 302.487l-5.508 82.624a26.483 26.483 0 0 1-10.535 19.425l-18.522 13.891a26.482 26.482 0 0 1-15.89 5.297h-17.655a26.478 26.478 0 0 1-15.89-5.297l-18.522-13.892a26.481 26.481 0 0 1-10.535-19.425l-5.508-82.624c-1.358-20.38 14.807-37.659 35.232-37.659h48.1c20.426.001 36.591 17.279 35.233 37.66z" fill="#f0c087"/><path d="M403.636 264.828h-48.1c-20.426 0-36.591 17.279-35.232 37.658l2.196 32.941c3.036-.209 78.753-5.652 115.833-24.909l.535-8.032c1.359-20.38-14.805-37.658-35.232-37.658z" fill="#5a4146"/><path d="M405.845 148.082L382.517 47.017c-2.784-12.09-13.396-20.534-25.802-20.534h-7.224c-12.405 0-23.017 8.444-25.802 20.526l-23.328 101.074a8.835 8.835 0 0 0 6.621 10.591c4.75 1.069 9.483-1.866 10.586-6.616l6.571-28.471h57.929l6.571 28.47a8.829 8.829 0 0 0 17.206-3.975zm-77.631-42.151l12.683-54.957c.922-4.025 4.457-6.836 8.595-6.836h7.224a8.768 8.768 0 0 1 8.595 6.845l12.682 54.948h-49.779z" fill="#fff"/></symbol><symbol viewBox="0 0 40 40" id="twitter" xmlns="http://www.w3.org/2000/svg"><use xlink:href="#mpath0_fill" fill="#FFF"/><defs><path id="mpath0_fill" d="M19.934.007c4.117 0 8.234-.014 12.352.006 3.24.014 5.505 1.606 6.932 4.458.472.946.631 1.986.631 3.039 0 8.329.013 16.658-.006 24.987-.007 3.592-2.418 6.557-5.917 7.33-.538.12-1.096.153-1.647.153-8.234.007-16.469-.02-24.703.02C3.791 40.013.79 37.221.18 34.123a8.318 8.318 0 0 1-.166-1.62c-.014-8.415-.02-16.817 0-25.227.006-2.045.83-3.758 2.29-5.177C3.799.659 5.585-.007 7.65 0c4.097.013 8.195.007 12.285.007zM7.484 17.638c-.014 1.353.43 2.485 1.248 3.471a5.457 5.457 0 0 0 3.154 1.92c-.777.266-1.5.246-2.284.106.956 2.299 2.543 3.645 5.046 3.832-2.344 1.825-4.98 2.492-7.869 2.292a.366.366 0 0 0 .113.1c2.929 1.786 6.11 2.532 9.516 2.239 4.084-.353 7.524-2.02 10.2-5.164 2.517-2.966 3.858-6.39 3.865-10.295 0-.6.199-.926.644-1.273.797-.613 1.454-1.38 2.052-2.285-.379.133-.69.26-1.016.36-.319.1-.638.186-.956.266-.32.073-.644.133-.97.2 1.05-.76 1.806-1.693 2.218-2.992-.173.087-.272.133-.372.187-.87.48-1.786.812-2.749 1.046-.22.053-.378.033-.558-.14-1.381-1.346-3.054-1.76-4.894-1.366-2.769.593-4.542 3.092-4.276 5.923.02.214.053.427.086.667-4.582-.32-8.28-2.266-11.276-5.77-1.235 2.838-.93 5.283 1.54 7.322-.876 0-1.646-.313-2.463-.646z"/></defs></symbol><symbol viewBox="0 0 40 40" id="twitter" xmlns="http://www.w3.org/2000/svg"><use xlink:href="#npath0_fill" fill="#FFF"/><defs><path id="npath0_fill" d="M19.934.007c4.117 0 8.234-.014 12.352.006 3.24.014 5.505 1.606 6.932 4.458.472.946.631 1.986.631 3.039 0 8.329.013 16.658-.006 24.987-.007 3.592-2.418 6.557-5.917 7.33-.538.12-1.096.153-1.647.153-8.234.007-16.469-.02-24.703.02C3.791 40.013.79 37.221.18 34.123a8.318 8.318 0 0 1-.166-1.62c-.014-8.415-.02-16.817 0-25.227.006-2.045.83-3.758 2.29-5.177C3.799.659 5.585-.007 7.65 0c4.097.013 8.195.007 12.285.007zM7.484 17.638c-.014 1.353.43 2.485 1.248 3.471a5.457 5.457 0 0 0 3.154 1.92c-.777.266-1.5.246-2.284.106.956 2.299 2.543 3.645 5.046 3.832-2.344 1.825-4.98 2.492-7.869 2.292a.366.366 0 0 0 .113.1c2.929 1.786 6.11 2.532 9.516 2.239 4.084-.353 7.524-2.02 10.2-5.164 2.517-2.966 3.858-6.39 3.865-10.295 0-.6.199-.926.644-1.273.797-.613 1.454-1.38 2.052-2.285-.379.133-.69.26-1.016.36-.319.1-.638.186-.956.266-.32.073-.644.133-.97.2 1.05-.76 1.806-1.693 2.218-2.992-.173.087-.272.133-.372.187-.87.48-1.786.812-2.749 1.046-.22.053-.378.033-.558-.14-1.381-1.346-3.054-1.76-4.894-1.366-2.769.593-4.542 3.092-4.276 5.923.02.214.053.427.086.667-4.582-.32-8.28-2.266-11.276-5.77-1.235 2.838-.93 5.283 1.54 7.322-.876 0-1.646-.313-2.463-.646z"/></defs></symbol><symbol viewBox="0 0 57 57" id="twitter_onBlue" xmlns="http://www.w3.org/2000/svg"><use xlink:href="#opath0_fill" fill="#2D9CDB"/><defs><path id="opath0_fill" d="M28.367.01c5.859 0 11.717-.02 17.576.01 4.612.018 7.834 2.287 9.866 6.351.67 1.349.897 2.83.897 4.33 0 11.87.02 23.738-.01 35.607-.008 5.118-3.439 9.344-8.419 10.445-.765.171-1.559.218-2.343.218-11.718.01-23.435-.028-35.153.029-5.386.019-9.658-3.96-10.527-8.375a11.874 11.874 0 0 1-.236-2.307 9117.253 9117.253 0 0 1 0-35.95c.01-2.914 1.181-5.354 3.26-7.377 2.126-2.05 4.668-3 7.607-2.99 5.83.018 11.66.009 17.482.009zM10.649 25.134c-.02 1.927.614 3.542 1.776 4.947 1.153 1.396 2.608 2.326 4.489 2.735-1.106.38-2.136.35-3.25.151 1.36 3.276 3.618 5.194 7.18 5.46-3.335 2.602-7.086 3.551-11.197 3.267a.521.521 0 0 0 .16.142c4.168 2.545 8.694 3.608 13.542 3.19 5.812-.503 10.707-2.877 14.515-7.358 3.581-4.226 5.49-9.106 5.5-14.67 0-.855.283-1.32.916-1.814 1.134-.874 2.07-1.966 2.92-3.257-.539.19-.983.37-1.446.513-.453.142-.907.266-1.36.38-.454.104-.917.19-1.38.285 1.493-1.083 2.57-2.412 3.156-4.264-.246.124-.387.19-.53.266-1.237.684-2.541 1.158-3.911 1.49-.312.077-.539.048-.794-.199-1.966-1.918-4.347-2.506-6.965-1.946-3.94.845-6.463 4.406-6.085 8.441.028.304.075.608.123.95-6.52-.456-11.784-3.229-16.046-8.223-1.757 4.045-1.323 7.53 2.193 10.435-1.248 0-2.344-.446-3.506-.921z"/></defs></symbol><symbol viewBox="0 0 57 57" id="twitter_onBlue" xmlns="http://www.w3.org/2000/svg"><use xlink:href="#ppath0_fill" fill="#2D9CDB"/><defs><path id="ppath0_fill" d="M28.367.01c5.859 0 11.717-.02 17.576.01 4.612.018 7.834 2.287 9.866 6.351.67 1.349.897 2.83.897 4.33 0 11.87.02 23.738-.01 35.607-.008 5.118-3.439 9.344-8.419 10.445-.765.171-1.559.218-2.343.218-11.718.01-23.435-.028-35.153.029-5.386.019-9.658-3.96-10.527-8.375a11.874 11.874 0 0 1-.236-2.307 9117.253 9117.253 0 0 1 0-35.95c.01-2.914 1.181-5.354 3.26-7.377 2.126-2.05 4.668-3 7.607-2.99 5.83.018 11.66.009 17.482.009zM10.649 25.134c-.02 1.927.614 3.542 1.776 4.947 1.153 1.396 2.608 2.326 4.489 2.735-1.106.38-2.136.35-3.25.151 1.36 3.276 3.618 5.194 7.18 5.46-3.335 2.602-7.086 3.551-11.197 3.267a.521.521 0 0 0 .16.142c4.168 2.545 8.694 3.608 13.542 3.19 5.812-.503 10.707-2.877 14.515-7.358 3.581-4.226 5.49-9.106 5.5-14.67 0-.855.283-1.32.916-1.814 1.134-.874 2.07-1.966 2.92-3.257-.539.19-.983.37-1.446.513-.453.142-.907.266-1.36.38-.454.104-.917.19-1.38.285 1.493-1.083 2.57-2.412 3.156-4.264-.246.124-.387.19-.53.266-1.237.684-2.541 1.158-3.911 1.49-.312.077-.539.048-.794-.199-1.966-1.918-4.347-2.506-6.965-1.946-3.94.845-6.463 4.406-6.085 8.441.028.304.075.608.123.95-6.52-.456-11.784-3.229-16.046-8.223-1.757 4.045-1.323 7.53 2.193 10.435-1.248 0-2.344-.446-3.506-.921z"/></defs></symbol><symbol viewBox="0 0 512 512" id="world-connection" xmlns="http://www.w3.org/2000/svg"><path d="M255.999 103.239c84.369 0 152.762 68.392 152.762 152.762 0 84.367-68.392 152.763-152.762 152.763-84.367 0-152.763-68.394-152.763-152.763.001-84.369 68.396-152.762 152.763-152.762z" fill="#15bdb2"/><path d="M255.999 103.237c60.511 0 112.798 35.181 137.535 86.205a167.06 167.06 0 0 1 5.723 43.441c0 92.175-74.725 166.901-166.905 166.901a167.26 167.26 0 0 1-39.799-4.788C139.857 370.902 103.238 317.73 103.238 256c0-84.369 68.395-152.763 152.761-152.763z" fill="#21d0c3"/><path d="M351.442 136.73c28.406 22.762 48.508 55.454 55.032 92.819-.458-.711-.929-1.638-1.402-3.013-2.983.978-3.081 1.056-6.602 1.645l-.155.215c-1.401 1.996.07 1.151-2.391 3.231-2.932 2.467-4.843 5.835-8.116 7.831-.393 3.489.291 4.272-.587 8.424-.345 1.528-2.056 5.639-4.062 5.328-.636-.117-3.327-6.778-3.96-8.618-1.077-3.133-2.299-5.444-3.081-9.045-.438-1.922-.736-5.601-1.174-6.896-2.103.312-2.007 1.649-4.014.239-1.415-1.022-.78-1.645-1.564-3.173-1.661-1.567-3.373-3.133-5.084-4.7-1.322-.429-6.41.311-8.562.078-3.864-.354-4.202-.118-6.502-3.212-4.062.198-3.719 1.723-7.681-1.685-2.593-2.194-2.103-5.717-5.868-3.722-.145 3.212 1.419 3.92 2.836 5.405 1.026 1.139 2.299 1.921 2.834 3.445.051.043.295 1.489.345 1.684 3.667.24 4.548-1.524 6.551-3.013 1.959 1.84.048 2.156 2.886 3.602 2.248 1.139 1.81.471 3.275 2.31.736 2.468-5.036 9.165-6.945 10.38-1.465.939-2.248.39-3.568 1.485-1.954 1.648.246 1.411-3.177 2.665-3.668 1.333-7.292 4.152-11.152 4.386-.832-2.273-1.665-4.579-2.494-6.893-2.447-7.873-2.347-4.818-4.844-8.891-1.176-1.766-.685-2.899-1.469-4.466-.539-1.174-1.367-1.685-2.103-3.13-1.124-2.234-2.442-5.718-5.036-5.369-.54 1.763 2.396 7.714 3.129 9.164.736 1.45 1.907 2.078 2.252 4.155.488 2.856-.099 2.502 1.465 4.42 3.279 3.956-.145 3.255 4.941 7.128 3.814 2.901 2.834 3.762 4.451 7.641 2.494.701 9.928-2.624 11.198-1.646 1.516 2.702-1.759 7.007-2.591 9.358-2.739 7.873-7.532 7.756-11.2 13.786-2.003 3.255-2.934 3.684-4.792 7.602-2.105 4.422 4.254 16.681.441 21.814-.832 1.173-3.522 1.879-6.897 5.444-3.572 3.875.097 3.209-1.275 9.672-1.075 1.489-2.394 1.567-3.717 2.626-.488 1.524-.097 2.736-.929 4.62-.88 2.272-1.026 1.056-2.301 2.899-.928 1.445-.828 2.033-1.906 3.367-.929 1.216-1.419 1.562-2.297 2.349-4.258 3.918-13.404 4.034-14.184 3.484-2.156-1.838-.685-2.311-1.223-4.895-.523-2.273-1.73-4.174-2.736-5.928l-.103-.183c-.488-.858-.93-1.685-1.176-2.467-1.762-5.562-1.122-9.787-4.204-15.428-3.864-7.289 2.149-11.085 1.903-15.197-.097-1.095-.487-1.761-.587-2.626-.732-4.54-1.171-8.614-4.204-12.18-3.327-3.874-2.888-2.506-1.81-8.887 1.368-7.324-1.76-5.446-6.161-5.64-2.155-6.658-6.361-3.41-10.564-1.45-2.642 1.212-3.62-.351-6.606.078-6.653.9-1.417 3.762-10.32-3.29-3.717-2.938-1.223-1.45-3.423-5.129-.732-1.333-2.983-3.095-4.012-4.427-3.371-4.23.639-8.497.052-13.354-1.029-9.007-2.494-1.177 2.543-12.063 2.642-5.796 6.651-5.835 7.68-8.423.88-2.309.291-3.956 1.955-6.068 1.467-1.724 3.57-1.373 4.401-4.074 1.172-3.329-1.076-3.758-3.521-3.84-1.026-3.484-1.026-2.624-.247-5.835.442-1.801.05-2.667.442-4.466.977-4.501 8.657-.035 10.859-1.879 1.026-1.918 1.174-3.797 0-5.64-1.226-1.838-2.834-1.606-3.667-3.367 1.857-1.251.487-.156 2.103-.51 1.906-.429 1.661-.978 3.91-1.406 2.006-.395 3.282-2.234 5.235-3.485 2.788-1.799 1.465-3.41 4.843-3.956 5.429-.943 1.906-.783 2.496-5.839.826-.312 1.61-.667 2.393-1.017 1.714 2.234-.437 1.333 1.615 2.818.538-.312 1.174-.625 1.761-.936-.294-2.432-1.417-1.96-2.153-4.973-2.691.428-3.667 2.701-5.82 1.877-2.103-.782-2.201-3.801-2.103-6.307.78-1.879 4.694-2.896 6.21-3.367 2.448-.821 2.104-2.467 4.355-4.7 2.935-2.94.78.039 2.2-3.758 3.23-.12 1.713-.239 3.62-1.216l.097-.039.196-.079c1.127-.51 2.593-.627 4.062-1.134 5.378-1.799 7.578-.9 11.491.702 3.032 1.256 12.18 1.294 12.865 5.134-2.201 2.306-4.304.624-7.484.822.587 2.974.832 2.974 3.522 3.796.441-1.41-.196-.857.539-1.762.881.195 1.763.351 2.638.51.885-3.018 1.91-2.585 4.895-2.938-.492-2.078-1.03-1.489.096-3.134 3.084.316.587.043 2.103 2.509 2.153-.275 4.257-2.665 7.239-2.976 1.859-.196 1.764.509 4.401.234 2.154-.234 2.055-1.017 4.21-.117.78-1.45 0-1.411 1.907-1.763 2.931-.51 5.476 1.29 8.313 1.685-2.101-2.585-4.107-2.078-1.516-6.386 3.277-.666 3.57-.195 4.988 2.273.806-.453 1.148-.905 1.544-1.138h.001v.005zm-244.631 86.326c6.883-31.31 23.364-59.021 46.207-79.884 1.776.617 4.122.209 5.886.137.632-1.173 1.026-2.195 2.149-2.624.441-.155.981-.194 1.712-.155.098.584.246 1.173.391 1.762 0 .043.099.432.052.354.047-.083.097.234.144.351 3.085-1.801.49-1.84 2.153-5.091-2.593-.51-2.249-.2-3.865-1.843 1.569-1.723 4.597-2.31 6.849-2.153-.149 1.568-.879 1.529-.292 2.858 1.762-1.096 2.982-4.03 5.82-3.485.538.39 1.178.745 1.762 1.096-1.469 1.372-3.667 1.45-5.574 2.233-.832 8.501 2.69 1.372 1.516 7.207 2.103-.156 4.159-1.684 4.937-3.25-.779-1.017-1.906-1.017-2.541-2.234.494-1.567 1.547-2.752 3.032-3.457 1.005-.48 2.21-.734 3.572-.734 15.553.118 8.165.822 12.962 3.018 1.075.467 2.981.705 3.619 1.645.978 1.489.048 2.896 1.612 4.073 1.371 1.017 1.568-.039 3.376 2.234-.389 1.289-1.321 2.623-3.225 2.663-2.642.039-1.077-1.763-3.914-1.49.05 2.662 2.691 3.684.243 5.13-2.15 1.293-.783-.468-2.395.432-.05.039-.198.117-.247.156a1.348 1.348 0 0 0-.246.273 36.39 36.39 0 0 0-.78.864c-3.912-1.06-3.177-.587-5.526-3.172-.88-.978-1.024-1.217-2.593-1.095-.977.035-2.248.463-3.181-.393 1.909-2.389 2.838-.078 5.625-1.489.49-.239 3.572-2.624 4.062-3.173-.832-1.877-.1-.316-1.32-1.528-2.742-2.779-3.526-2.077-7.239-2.077-1.741 2.004-3.043 4.478-4.939 5.566-1.144.658-2.505.806-4.306.039.832 3.366 2.981.782 3.178 4.856-1.417-.275-2.154-.982-3.62-.471-3.13 1.174-.34 1.057-.096 1.685 0 .039 1.466.195 0 .744-1.617.585-.246-.314-3.376-2.155.44-.783.881-1.602 1.32-2.428-2.543.783-5.724 2.038-8.704 3.484-3.377 1.684-6.557 3.606-8.463 5.367-.05 2.94.488.978.782 4.467 4.549.272 3.081 1.64 7.63 2.935.879.237 2.006.47 3.377.705 0 2.194-1.959 3.84-.591 6.112 3.181 2.229 3.279-2.117 4.061-4.895 10.766-2.249 5.578-5.415 8.36-11.335.417-.884 1.009-1.828 1.864-2.845.827.039 4.202.393 4.937.549 2.446.429 1.126 1.017 3.768 2.19-.051 2.117-1.126 4.858 2.004 4.35 2.396-.429 1.861-2.311 4.793-2.783 1.319 3.095.978 4.427 1.565 8.145 7.044 2.745 3.912 4.974 2.543 10.108a54.47 54.47 0 0 0 2.741 1.212c-.047 1.489-.099 2.938-.148 4.388-.145 0-7.533-1.609-8.022-1.762 1.126-3.216 3.179-3.251 4.501-6.541-2.641.468-2.448 1.29-4.355 1.879-1.71.51-3.032.156-4.842.393-.637 2.112-.05-1.843.149.857.097 1.022.587.044-.1 1.139-2.446-1.139-1.613-3.801-6.163-1.333 1.027.471 2.052.9 3.13 1.333-.145 3.013-.39.741-1.026 2.741-1.568 5.129 4.256 1.955 5.771 1.684-.393 2.706-2.056 2.706-4.403 3.445-2.59.783-3.373 1.843-5.428 2.315 0-3.216-.488-.51.929-2.743-2.056.194-3.572 1.134-5.526 1.959l-.195.074c-2.514 1.026-2.895 1.178-3.181 4.388-2.153.664-4.646 1.412-6.161 2.979a1991.934 1991.934 0 0 0-4.503 4.306c-.146.118-.246.235-.339.312.539 4.035 0 4.113-2.448 5.683-2.055 1.328-2.74 1.29-4.646 2.974-6.113 5.484-3.178 2.935-2.838 12.375a70.3 70.3 0 0 1-3.665-1.251c-.932-6.268.339-4.191-4.698-5.639-5.428-1.568-4.696 1.094-6.945 1.567-2.494.546-3.719-2.273-7.339.077-2.003 1.369-3.91 2.271-4.4 4.698-.586 2.94-1.906 5.09-1.712 8.346.344 8.813 8.364 9.319 10.419 5.207 1.367-2.74 1.028-4.23 5.477-3.523.442 2.35-.246 4.073-.832 5.874-.391 1.057-1.467 2.974-.929 4.428 3.181 1.289 3.277-1.139 7.484 1.367.293 4.191-1.907 8.891 1.32 11.32 2.493 1.838 2.641.195 4.842-.196 2.448-.429 2.006 1.096 4.258 1.45 1.271-1.567.734-.588 1.565-2.509 1.466-3.326 1.857-1.762 5.332-3.797.339-.195.632-.393.977-.627.39.821.832 1.606 1.22 2.389 2.545-3.016 2.838-.079 5.773.745 1.264.346 2.162.47 2.855.479 2.135.032 2.351-1.005 5.263.027.344.161.783.277 1.178.393.05 0 .194.078.194.157.052.039.197.156.244.198.488.546.54 1.095.93 1.685 2.007 1.916 4.014 3.84 5.968 5.717 3.861 1.528 3.861-1.332 8.266 2.935 1.857 1.763 1.024 1.727 2.053 3.995.15.356.44.705.637 1.139.39 1.056.832 2.073 1.274 3.091 2.004 2.628 4.742.983 7.53 3.684 1.613 1.567.393 1.095 3.962 1.723 5.528.9 3.377.393 7.584 3.567 1.613 1.173 2.003.506 3.52 1.524 2.103 2.938 1.564 6.112-.194 8.696-5.43 7.912-3.572 6.617-3.817 12.886-.198 3.601-1.223 11.041-4.6 11.942-12.276 3.449-5.136 5.839-8.362 11.908-.929 1.727-1.616 2.155-2.203 3.527-2.442 5.714-.732 7.635-7.97 6.346.686 1.213.246.39.931 1.485 2.149 3.328 2.494 5.839-1.909 6.656-3.667.706-2.103 0-2.445 4.074-1.42.588-2.055 0-2.984.939 1.272 2.35.098.393 2.252 1.726-.393 1.29-.688 2.546-1.028 3.797-.829 3.057-1.075.239-1.368 3.801 1.271.585 2.153.468 3.275 1.999-.145 1.174-1.32 4.385-1.662 6.225 1.81 2.706 3.279 5.601 7.142 5.879-.05 2.268.488 2.035-1.467 2.502-1.663.392-5.183-1.174-6.654-1.957-2.543-1.373-4.891-3.173-6.601-5.757-.977-1.451-.587-.745-1.616-2.114-1.857-2.389-1.122-3.488-1.661-5.095-.294-.938-1.809-1.955-1.174-5.012.148-.86 1.516-4.973-.145-4.269-1.665.667 1.27.39-1.029 1.489-.54-1.489-.977-3.683-1.272-5.521-.587-3.095-1.32-3.214-1.665-5.091-.734-4.35 1.126-4.822-.929-12.068-1.349-4.794-.807-16.142-2.233-21.966-.228-.927-.507-1.715-.848-2.316-1.319-2.19-4.549-3.208-7.139-4.973-.148-.034-.246-.077-.293-.155-3.57-2.507-6.946-12.337-9.785-16.016-1.317-1.766-2.151-.983-2.739-3.762-.634-2.546.342-2.114 1.174-4.234-4.351-7.986 5.626-7.87 3.572-17.466-.438-1.762-1.71-4.228-2.788-5.008-2.055.9-1.076 1.407-2.154 3.131a477.992 477.992 0 0 1-4.939-2.819c-5.039-4.857-2.349-1.333-3.765-4.505-3.033-6.658-5.919-2.935-9.538-6.225-1.617-1.372-1.909-3.527-4.598-3.133-4.057.545-1.808 1.173-6.015-.787-3.572-1.685-7.289-3.641-9.784-5.912-.131-4.757 1.315-4.298-2.3-8.687l-.005-.006zm47.888-81.388c.925-.821 1.861-1.63 2.807-2.428l.076.155c.195.312.343.312.54 1.135-2.479.603-2.475 1.014-3.423 1.138zm130.735 45.416c1.352.864 3.01 1.523 4.012 2.4 1.271 3.485-.341 1.801 2.151 5.446 1.419 1.957 1.126 3.366 2.591 4.462 2.694-.351.345.432 2.006-1.212.294-.312 1.126-1.294 1.367-1.685-.877-1.333-1.415-1.45-2.197-2.821 3.029-4.03 4.351-1.723 5.085.943 1.909 7.402 4.842 5.246 7.291 4.891 2.493-.351.338.081 2.59.667 2.153.549 1.122 0 2.639-.39 5.135-1.256 1.178 8.696.639 9.791-2.788.35-2.249-.273-4.259-.471-4.058-.429.246 2.432-9.34-.706-9.197-2.934-7.239-3.601-9.148 2.785-2.103-.157-2.003-.551-3.958-1.213-.748-.285-1.177-.436-1.47-.522l-.097-.032c-.781-.272 0-.034-1.614-1.563-1.419-1.332-4.89-1.645-7.339-2.938 0-2.112 1.857-3.874-.391-6.385-.732-.196-11.151.239-12.812.588-3.373.706-3.964 3.563-8.609 2.938-2.543-.353-1.661-.117-2.3-1.606.832-.821 0-.393 1.423-.9.536-.195.734-.117 1.271-.195 7.53-1.138 3.666-4.939 8.362-8.579 3.913-3.134.832.039 2.984-3.762 2.642-.234 2.299 1.056 4.549-.039 1.861-.939 1.271-1.762 3.912-1.843 2.348 2.354 1.857 3.763 5.675 5.562 1.516.71 2.445 1.099 3.422 2.393 1.762 2.506.246 1.684.932 3.406a4.64 4.64 0 0 1 .536-.235l.097-.046c2.057-.983-1.027-1.294 2.299-4.225-.975-.706-1.685-1.201-2.299-1.552l-.097-.053c-2.592-1.525-1.565-.118-4.89-4.269-.881-1.178-1.127-1.252-1.075-3.056 2.394-.429 2.836 1.293 4.987 3.212.293.275.636.51.978.744l.097.07zm52.235 105.443c-2.148 1.095-2.445 3.605-4.057 5.012-1.762 1.606-4.11.865-4.794 3.839-.88 3.719 1.467 2.584-1.126 7.441-.926 1.799-.977 6.302.442 7.638 4.254 4.109 6.555-6.268 7.532-9.518.732-2.31 1.419-4.934 2.201-7.089.785-2.311 1.906-4.345-.198-7.323zm-7.041-109.272c.34 4.783 3.177 6.623 5.187 8.813-.247 2.273-.783 1.685-.736 4.857 2.396 1.728 4.155 2.78 7.287 1.922.438-3.84-.782-3.645-1.955-6.269.195-.314.732-.705.829-.782.88-1.173.442.468.88-1.528-2.298-.742-6.016-3.094-6.307-6.186 1.124-.899.78-.353 1.609-.899 1.81-1.178.443.623 1.517-1.372-.926-1.801-1.955-2.117-4.205-1.217-.975.394-3.568 2.233-4.106 2.661zm-20.004 1.256c-1.516-2.112-1.419-3.172-4.354-3.251-1.172 1.256-2.543 3.134-3.178 5.052-.978 2.899-.293.9-.196 4.034-.05.118 0 .277 0 .393-.05 1.879-.49-.353-.198 1.372 2.301-.471.54-.432 2.252-.983 1.614-.549 6.556-2.038 7.974-1.684 3.372.783 6.211 3.45 10.026.783-.197-3.406-4.306-4.701-7.142-6.19.148-3.13.978-.663.78-3.68-.977-.038-1.564-.195-2.493.196-2.2.978-.978 1.256-.978 1.606.098 1.685 2.202-.35-.048 1.727-.635.547-1.665.547-2.445.625zm-57.129-23.734c-.093 5.483 1.809 3.641 3.619 6.346-.828 2.311-.976.512-1.903 2.896-.832 1.999.195.2-.345 3.684 1.42.078 3.521-.429 5.381-.588 2.643-.235 2.595-.471 3.523-3.173-1.467-1.799-2.935-3.601-4.451-5.402-1.911-2.899 0-.904-.588-3.332a61.651 61.651 0 0 1-1.223-2.584c-2.544.864-2.298.626-4.013 2.153z" fill="#fff"/><path d="M265.411 99.289V76.884h16.444L256 40.177l-25.854 36.707h16.444v22.409l.146-.009.146-.009 1.458-.092.146-.008.146-.009.148-.007.734-.038.148-.007.146-.007 2.498-.094.146-.004.109-.005h.065a127.995 127.995 0 0 1 6.776-.002l.04.002.109.002c1.033.025 2.059.065 3.086.117l.146.008.077.002.07.005.146.007c.78.04 1.559.089 2.335.144z" fill="#d80027"/><path d="M151.843 138.534l-15.842-15.842 11.626-11.627-44.237-7.675 7.675 44.237L122.693 136l15.846 15.846.097-.11.097-.111.965-1.096.099-.109.097-.111.098-.109.493-.546.098-.109.099-.11 1.7-1.831.102-.106.073-.08.028-.028.018-.018a127.617 127.617 0 0 1 4.79-4.793l.03-.027.079-.076c.748-.712 1.5-1.41 2.265-2.099l.109-.098.057-.053.052-.045.109-.099a115.83 115.83 0 0 1 1.749-1.548z" fill="#21d0c3"/><path d="M99.289 246.589H76.885v-16.444L40.177 256l36.707 25.853V265.41h22.409l-.009-.146-.009-.146-.092-1.458-.008-.146-.009-.146-.007-.148-.038-.734-.007-.148-.007-.146-.094-2.498-.004-.146-.005-.109v-.065a127.995 127.995 0 0 1-.002-6.776l.002-.04.002-.109c.025-1.033.065-2.059.117-3.086l.008-.146.002-.077.005-.07.007-.146c.04-.78.09-1.559.144-2.335z" fill="#fad24d"/><path d="M138.535 360.157l-15.842 15.842-11.627-11.626-7.675 44.237 44.237-7.675-11.626-11.627 15.846-15.846-.11-.097-.111-.097-1.096-.965-.109-.099-.111-.097-.109-.098-.546-.493-.109-.098-.11-.099-1.831-1.7-.106-.102-.08-.073-.028-.028-.018-.018a127.617 127.617 0 0 1-4.793-4.79l-.027-.03-.076-.079c-.712-.748-1.41-1.5-2.099-2.265l-.098-.109-.053-.057-.045-.052-.099-.109a115.338 115.338 0 0 1-1.549-1.75z" fill="#d80027"/><path d="M246.59 412.711v22.404h-16.444L256 471.822l25.853-36.707H265.41v-22.409l-.146.009-.146.009-1.458.092-.146.008-.146.009-.148.007-.734.04-.148.007-.146.007-2.498.094-.146.002-.109.006h-.065a127.995 127.995 0 0 1-6.776.002l-.04-.002-.109-.002a116.847 116.847 0 0 1-3.086-.117l-.146-.008-.077-.002-.07-.005-.146-.007c-.779-.04-1.558-.09-2.334-.144z" fill="#fad24d"/><path d="M360.158 373.466L376 389.308l-11.626 11.627 44.237 7.675-7.675-44.237L389.308 376l-15.846-15.846-.097.11-.097.111-.965 1.096-.099.109-.097.111-.098.109-.493.546-.098.109-.099.11-1.7 1.831-.102.106-.073.08-.028.028-.018.018a127.617 127.617 0 0 1-4.79 4.793l-.03.027-.079.076c-.748.712-1.5 1.41-2.265 2.099l-.109.098-.057.053-.052.045-.109.099c-.577.522-1.163 1.037-1.749 1.548z" fill="#21d0c3"/><path d="M412.711 265.41h22.404v16.444L471.822 256l-36.707-25.854v16.444h-22.409l.009.146.009.146.092 1.458.008.146.009.146.007.148.038.734.007.148.007.146.094 2.498.002.146.006.109v.065a127.995 127.995 0 0 1 .002 6.776l-.002.04-.002.109a116.847 116.847 0 0 1-.117 3.086l-.008.146-.002.077-.005.07-.007.146c-.038.78-.087 1.558-.142 2.334z" fill="#d80027"/><path d="M373.466 151.842L389.308 136l11.627 11.626 7.675-44.237-44.237 7.675L376 122.692l-15.846 15.846.11.097.111.097 1.096.965.109.099.111.097.109.098.546.493.109.098.11.099 1.831 1.7.106.102.08.073.028.028.018.018a127.617 127.617 0 0 1 4.793 4.79l.027.03.076.079c.712.748 1.41 1.5 2.099 2.265l.098.109.053.057.045.052.099.109a115.83 115.83 0 0 1 1.548 1.749z" fill="#fad24d"/></symbol></svg>