<svg width="57" height="57" xmlns="http://www.w3.org/2000/svg" xmlns:xlink="http://www.w3.org/1999/xlink"><use xlink:href="#path0_fill" transform="translate(.1)" fill="#2D9CDB"/><defs><path id="path0_fill" d="M39.148 56.952V34.914h7.333c.37-2.877.738-5.707 1.116-8.603h-8.44c-.009-.18-.018-.304-.018-.427 0-1.68-.019-3.352.01-5.032.009-.646.066-1.31.245-1.919.425-1.471 1.39-2.145 3.08-2.212 1.607-.057 3.214-.066 4.82-.095h.577v-7.71c-1.068-.076-2.136-.18-3.194-.218-1.947-.067-3.903-.21-5.84.142-3.63.655-6.304 2.573-7.712 6.087-.68 1.68-.831 3.465-.85 5.26-.02 1.851 0 3.703 0 5.554v.57h-7.352v8.593h7.333v22.067c-.17.01-.321.02-.473.02-6.331 0-12.663-.039-18.994.009-5.037.038-9.015-3.419-10.234-7.34-.303-.969-.501-2.013-.51-3.02a5850.145 5850.145 0 0 1-.03-36.423c.01-2.82 1.192-5.194 3.195-7.169C5.336.968 7.888 0 10.846 0c11.69.01 23.37-.01 35.06.01 4.61.009 7.843 2.26 9.884 6.323.68 1.358.916 2.858.916 4.368 0 11.87.02 23.738-.009 35.607-.01 5.108-3.459 9.353-8.43 10.445-.69.152-1.408.209-2.107.218-2.22.029-4.441.01-6.662.01-.104-.01-.217-.02-.35-.029z"/></defs></svg>
