<svg version="1.1" id="Layer_1" xmlns="http://www.w3.org/2000/svg" xmlns:xlink="http://www.w3.org/1999/xlink" x="0px" y="0px"
	 viewBox="0 0 512 512" style="enable-background:new 0 0 512 512;" xml:space="preserve">
<path style="fill:#15BDB2;" d="M255.999,103.239c84.369,0,152.762,68.392,152.762,152.762c0,84.367-68.392,152.763-152.762,152.763
	c-84.367,0-152.763-68.394-152.763-152.763C103.237,171.632,171.632,103.239,255.999,103.239z"/>
<path style="fill:#21D0C3;" d="M255.999,103.237c60.511,0,112.798,35.181,137.535,86.205c3.725,13.853,5.723,28.411,5.723,43.441
	c0,92.175-74.725,166.901-166.905,166.901c-13.717,0-27.044-1.667-39.799-4.788c-52.696-24.094-89.315-77.266-89.315-138.996
	C103.238,171.631,171.633,103.237,255.999,103.237L255.999,103.237z"/>
<path style="fill:#FFFFFF;" d="M351.442,136.73c28.406,22.762,48.508,55.454,55.032,92.819c-0.458-0.711-0.929-1.638-1.402-3.013
	c-2.983,0.978-3.081,1.056-6.602,1.645l-0.155,0.215c-1.401,1.996,0.07,1.151-2.391,3.231c-2.932,2.467-4.843,5.835-8.116,7.831
	c-0.393,3.489,0.291,4.272-0.587,8.424c-0.345,1.528-2.056,5.639-4.062,5.328c-0.636-0.117-3.327-6.778-3.96-8.618
	c-1.077-3.133-2.299-5.444-3.081-9.045c-0.438-1.922-0.736-5.601-1.174-6.896c-2.103,0.312-2.007,1.649-4.014,0.239
	c-1.415-1.022-0.78-1.645-1.564-3.173c-1.661-1.567-3.373-3.133-5.084-4.7c-1.322-0.429-6.41,0.311-8.562,0.078
	c-3.864-0.354-4.202-0.118-6.502-3.212c-4.062,0.198-3.719,1.723-7.681-1.685c-2.593-2.194-2.103-5.717-5.868-3.722
	c-0.145,3.212,1.419,3.92,2.836,5.405c1.026,1.139,2.299,1.921,2.834,3.445c0.051,0.043,0.295,1.489,0.345,1.684
	c3.667,0.24,4.548-1.524,6.551-3.013c1.959,1.84,0.048,2.156,2.886,3.602c2.248,1.139,1.81,0.471,3.275,2.31
	c0.736,2.468-5.036,9.165-6.945,10.38c-1.465,0.939-2.248,0.39-3.568,1.485c-1.954,1.648,0.246,1.411-3.177,2.665
	c-3.668,1.333-7.292,4.152-11.152,4.386c-0.832-2.273-1.665-4.579-2.494-6.893c-2.447-7.873-2.347-4.818-4.844-8.891
	c-1.176-1.766-0.685-2.899-1.469-4.466c-0.539-1.174-1.367-1.685-2.103-3.13c-1.124-2.234-2.442-5.718-5.036-5.369
	c-0.54,1.763,2.396,7.714,3.129,9.164c0.736,1.45,1.907,2.078,2.252,4.155c0.488,2.856-0.099,2.502,1.465,4.42
	c3.279,3.956-0.145,3.255,4.941,7.128c3.814,2.901,2.834,3.762,4.451,7.641c2.494,0.701,9.928-2.624,11.198-1.646
	c1.516,2.702-1.759,7.007-2.591,9.358c-2.739,7.873-7.532,7.756-11.2,13.786c-2.003,3.255-2.934,3.684-4.792,7.602
	c-2.105,4.422,4.254,16.681,0.441,21.814c-0.832,1.173-3.522,1.879-6.897,5.444c-3.572,3.875,0.097,3.209-1.275,9.672
	c-1.075,1.489-2.394,1.567-3.717,2.626c-0.488,1.524-0.097,2.736-0.929,4.62c-0.88,2.272-1.026,1.056-2.301,2.899
	c-0.928,1.445-0.828,2.033-1.906,3.367c-0.929,1.216-1.419,1.562-2.297,2.349c-4.258,3.918-13.404,4.034-14.184,3.484
	c-2.156-1.838-0.685-2.311-1.223-4.895c-0.523-2.273-1.73-4.174-2.736-5.928l-0.103-0.183c-0.488-0.858-0.93-1.685-1.176-2.467
	c-1.762-5.562-1.122-9.787-4.204-15.428c-3.864-7.289,2.149-11.085,1.903-15.197c-0.097-1.095-0.487-1.761-0.587-2.626
	c-0.732-4.54-1.171-8.614-4.204-12.18c-3.327-3.874-2.888-2.506-1.81-8.887c1.368-7.324-1.76-5.446-6.161-5.64
	c-2.155-6.658-6.361-3.41-10.564-1.45c-2.642,1.212-3.62-0.351-6.606,0.078c-6.653,0.9-1.417,3.762-10.32-3.29
	c-3.717-2.938-1.223-1.45-3.423-5.129c-0.732-1.333-2.983-3.095-4.012-4.427c-3.371-4.23,0.639-8.497,0.052-13.354
	c-1.029-9.007-2.494-1.177,2.543-12.063c2.642-5.796,6.651-5.835,7.68-8.423c0.88-2.309,0.291-3.956,1.955-6.068
	c1.467-1.724,3.57-1.373,4.401-4.074c1.172-3.329-1.076-3.758-3.521-3.84c-1.026-3.484-1.026-2.624-0.247-5.835
	c0.442-1.801,0.05-2.667,0.442-4.466c0.977-4.501,8.657-0.035,10.859-1.879c1.026-1.918,1.174-3.797,0-5.64
	c-1.226-1.838-2.834-1.606-3.667-3.367c1.857-1.251,0.487-0.156,2.103-0.51c1.906-0.429,1.661-0.978,3.91-1.406
	c2.006-0.395,3.282-2.234,5.235-3.485c2.788-1.799,1.465-3.41,4.843-3.956c5.429-0.943,1.906-0.783,2.496-5.839
	c0.826-0.312,1.61-0.667,2.393-1.017c1.714,2.234-0.437,1.333,1.615,2.818c0.538-0.312,1.174-0.625,1.761-0.936
	c-0.294-2.432-1.417-1.96-2.153-4.973c-2.691,0.428-3.667,2.701-5.82,1.877c-2.103-0.782-2.201-3.801-2.103-6.307
	c0.78-1.879,4.694-2.896,6.21-3.367c2.448-0.821,2.104-2.467,4.355-4.7c2.935-2.94,0.78,0.039,2.2-3.758
	c3.23-0.12,1.713-0.239,3.62-1.216l0.097-0.039l0.196-0.079c1.127-0.51,2.593-0.627,4.062-1.134c5.378-1.799,7.578-0.9,11.491,0.702
	c3.032,1.256,12.18,1.294,12.865,5.134c-2.201,2.306-4.304,0.624-7.484,0.822c0.587,2.974,0.832,2.974,3.522,3.796
	c0.441-1.41-0.196-0.857,0.539-1.762c0.881,0.195,1.763,0.351,2.638,0.51c0.885-3.018,1.91-2.585,4.895-2.938
	c-0.492-2.078-1.03-1.489,0.096-3.134c3.084,0.316,0.587,0.043,2.103,2.509c2.153-0.275,4.257-2.665,7.239-2.976
	c1.859-0.196,1.764,0.509,4.401,0.234c2.154-0.234,2.055-1.017,4.21-0.117c0.78-1.45,0-1.411,1.907-1.763
	c2.931-0.51,5.476,1.29,8.313,1.685c-2.101-2.585-4.107-2.078-1.516-6.386c3.277-0.666,3.57-0.195,4.988,2.273
	c0.806-0.453,1.148-0.905,1.544-1.138h0.001V136.73z M106.811,223.056c6.883-31.31,23.364-59.021,46.207-79.884
	c1.776,0.617,4.122,0.209,5.886,0.137c0.632-1.173,1.026-2.195,2.149-2.624c0.441-0.155,0.981-0.194,1.712-0.155
	c0.098,0.584,0.246,1.173,0.391,1.762c0,0.043,0.099,0.432,0.052,0.354c0.047-0.083,0.097,0.234,0.144,0.351
	c3.085-1.801,0.49-1.84,2.153-5.091c-2.593-0.51-2.249-0.2-3.865-1.843c1.569-1.723,4.597-2.31,6.849-2.153
	c-0.149,1.568-0.879,1.529-0.292,2.858c1.762-1.096,2.982-4.03,5.82-3.485c0.538,0.39,1.178,0.745,1.762,1.096
	c-1.469,1.372-3.667,1.45-5.574,2.233c-0.832,8.501,2.69,1.372,1.516,7.207c2.103-0.156,4.159-1.684,4.937-3.25
	c-0.779-1.017-1.906-1.017-2.541-2.234c0.494-1.567,1.547-2.752,3.032-3.457c1.005-0.48,2.21-0.734,3.572-0.734
	c15.553,0.118,8.165,0.822,12.962,3.018c1.075,0.467,2.981,0.705,3.619,1.645c0.978,1.489,0.048,2.896,1.612,4.073
	c1.371,1.017,1.568-0.039,3.376,2.234c-0.389,1.289-1.321,2.623-3.225,2.663c-2.642,0.039-1.077-1.763-3.914-1.49
	c0.05,2.662,2.691,3.684,0.243,5.13c-2.15,1.293-0.783-0.468-2.395,0.432c-0.05,0.039-0.198,0.117-0.247,0.156
	c-0.097,0.078-0.194,0.195-0.246,0.273c-0.292,0.314-0.539,0.588-0.78,0.864c-3.912-1.06-3.177-0.587-5.526-3.172
	c-0.88-0.978-1.024-1.217-2.593-1.095c-0.977,0.035-2.248,0.463-3.181-0.393c1.909-2.389,2.838-0.078,5.625-1.489
	c0.49-0.239,3.572-2.624,4.062-3.173c-0.832-1.877-0.1-0.316-1.32-1.528c-2.742-2.779-3.526-2.077-7.239-2.077
	c-1.741,2.004-3.043,4.478-4.939,5.566c-1.144,0.658-2.505,0.806-4.306,0.039c0.832,3.366,2.981,0.782,3.178,4.856
	c-1.417-0.275-2.154-0.982-3.62-0.471c-3.13,1.174-0.34,1.057-0.096,1.685c0,0.039,1.466,0.195,0,0.744
	c-1.617,0.585-0.246-0.314-3.376-2.155c0.44-0.783,0.881-1.602,1.32-2.428c-2.543,0.783-5.724,2.038-8.704,3.484
	c-3.377,1.684-6.557,3.606-8.463,5.367c-0.05,2.94,0.488,0.978,0.782,4.467c4.549,0.272,3.081,1.64,7.63,2.935
	c0.879,0.237,2.006,0.47,3.377,0.705c0,2.194-1.959,3.84-0.591,6.112c3.181,2.229,3.279-2.117,4.061-4.895
	c10.766-2.249,5.578-5.415,8.36-11.335c0.417-0.884,1.009-1.828,1.864-2.845c0.827,0.039,4.202,0.393,4.937,0.549
	c2.446,0.429,1.126,1.017,3.768,2.19c-0.051,2.117-1.126,4.858,2.004,4.35c2.396-0.429,1.861-2.311,4.793-2.783
	c1.319,3.095,0.978,4.427,1.565,8.145c7.044,2.745,3.912,4.974,2.543,10.108c0.883,0.428,1.808,0.822,2.741,1.212
	c-0.047,1.489-0.099,2.938-0.148,4.388c-0.145,0-7.533-1.609-8.022-1.762c1.126-3.216,3.179-3.251,4.501-6.541
	c-2.641,0.468-2.448,1.29-4.355,1.879c-1.71,0.51-3.032,0.156-4.842,0.393c-0.637,2.112-0.05-1.843,0.149,0.857
	c0.097,1.022,0.587,0.044-0.1,1.139c-2.446-1.139-1.613-3.801-6.163-1.333c1.027,0.471,2.052,0.9,3.13,1.333
	c-0.145,3.013-0.39,0.741-1.026,2.741c-1.568,5.129,4.256,1.955,5.771,1.684c-0.393,2.706-2.056,2.706-4.403,3.445
	c-2.59,0.783-3.373,1.843-5.428,2.315c0-3.216-0.488-0.51,0.929-2.743c-2.056,0.194-3.572,1.134-5.526,1.959l-0.195,0.074
	c-2.514,1.026-2.895,1.178-3.181,4.388c-2.153,0.664-4.646,1.412-6.161,2.979c-1.516,1.446-3.033,2.895-4.503,4.306
	c-0.146,0.118-0.246,0.235-0.339,0.312c0.539,4.035,0,4.113-2.448,5.683c-2.055,1.328-2.74,1.29-4.646,2.974
	c-6.113,5.484-3.178,2.935-2.838,12.375c-1.271-0.389-2.494-0.821-3.665-1.251c-0.932-6.268,0.339-4.191-4.698-5.639
	c-5.428-1.568-4.696,1.094-6.945,1.567c-2.494,0.546-3.719-2.273-7.339,0.077c-2.003,1.369-3.91,2.271-4.4,4.698
	c-0.586,2.94-1.906,5.09-1.712,8.346c0.344,8.813,8.364,9.319,10.419,5.207c1.367-2.74,1.028-4.23,5.477-3.523
	c0.442,2.35-0.246,4.073-0.832,5.874c-0.391,1.057-1.467,2.974-0.929,4.428c3.181,1.289,3.277-1.139,7.484,1.367
	c0.293,4.191-1.907,8.891,1.32,11.32c2.493,1.838,2.641,0.195,4.842-0.196c2.448-0.429,2.006,1.096,4.258,1.45
	c1.271-1.567,0.734-0.588,1.565-2.509c1.466-3.326,1.857-1.762,5.332-3.797c0.339-0.195,0.632-0.393,0.977-0.627
	c0.39,0.821,0.832,1.606,1.22,2.389c2.545-3.016,2.838-0.079,5.773,0.745c1.264,0.346,2.162,0.47,2.855,0.479
	c2.135,0.032,2.351-1.005,5.263,0.027c0.344,0.161,0.783,0.277,1.178,0.393c0.05,0,0.194,0.078,0.194,0.157
	c0.052,0.039,0.197,0.156,0.244,0.198c0.488,0.546,0.54,1.095,0.93,1.685c2.007,1.916,4.014,3.84,5.968,5.717
	c3.861,1.528,3.861-1.332,8.266,2.935c1.857,1.763,1.024,1.727,2.053,3.995c0.15,0.356,0.44,0.705,0.637,1.139
	c0.39,1.056,0.832,2.073,1.274,3.091c2.004,2.628,4.742,0.983,7.53,3.684c1.613,1.567,0.393,1.095,3.962,1.723
	c5.528,0.9,3.377,0.393,7.584,3.567c1.613,1.173,2.003,0.506,3.52,1.524c2.103,2.938,1.564,6.112-0.194,8.696
	c-5.43,7.912-3.572,6.617-3.817,12.886c-0.198,3.601-1.223,11.041-4.6,11.942c-12.276,3.449-5.136,5.839-8.362,11.908
	c-0.929,1.727-1.616,2.155-2.203,3.527c-2.442,5.714-0.732,7.635-7.97,6.346c0.686,1.213,0.246,0.39,0.931,1.485
	c2.149,3.328,2.494,5.839-1.909,6.656c-3.667,0.706-2.103,0-2.445,4.074c-1.42,0.588-2.055,0-2.984,0.939
	c1.272,2.35,0.098,0.393,2.252,1.726c-0.393,1.29-0.688,2.546-1.028,3.797c-0.829,3.057-1.075,0.239-1.368,3.801
	c1.271,0.585,2.153,0.468,3.275,1.999c-0.145,1.174-1.32,4.385-1.662,6.225c1.81,2.706,3.279,5.601,7.142,5.879
	c-0.05,2.268,0.488,2.035-1.467,2.502c-1.663,0.392-5.183-1.174-6.654-1.957c-2.543-1.373-4.891-3.173-6.601-5.757
	c-0.977-1.451-0.587-0.745-1.616-2.114c-1.857-2.389-1.122-3.488-1.661-5.095c-0.294-0.938-1.809-1.955-1.174-5.012
	c0.148-0.86,1.516-4.973-0.145-4.269c-1.665,0.667,1.27,0.39-1.029,1.489c-0.54-1.489-0.977-3.683-1.272-5.521
	c-0.587-3.095-1.32-3.214-1.665-5.091c-0.734-4.35,1.126-4.822-0.929-12.068c-1.349-4.794-0.807-16.142-2.233-21.966
	c-0.228-0.927-0.507-1.715-0.848-2.316c-1.319-2.19-4.549-3.208-7.139-4.973c-0.148-0.034-0.246-0.077-0.293-0.155
	c-3.57-2.507-6.946-12.337-9.785-16.016c-1.317-1.766-2.151-0.983-2.739-3.762c-0.634-2.546,0.342-2.114,1.174-4.234
	c-4.351-7.986,5.626-7.87,3.572-17.466c-0.438-1.762-1.71-4.228-2.788-5.008c-2.055,0.9-1.076,1.407-2.154,3.131
	c-1.662-0.939-3.326-1.882-4.939-2.819c-5.039-4.857-2.349-1.333-3.765-4.505c-3.033-6.658-5.919-2.935-9.538-6.225
	c-1.617-1.372-1.909-3.527-4.598-3.133c-4.057,0.545-1.808,1.173-6.015-0.787c-3.572-1.685-7.289-3.641-9.784-5.912
	c-0.131-4.757,1.315-4.298-2.3-8.687L106.811,223.056z M154.699,141.668c0.925-0.821,1.861-1.63,2.807-2.428l0.076,0.155
	c0.195,0.312,0.343,0.312,0.54,1.135C155.643,141.133,155.647,141.544,154.699,141.668z M285.434,187.084
	c1.352,0.864,3.01,1.523,4.012,2.4c1.271,3.485-0.341,1.801,2.151,5.446c1.419,1.957,1.126,3.366,2.591,4.462
	c2.694-0.351,0.345,0.432,2.006-1.212c0.294-0.312,1.126-1.294,1.367-1.685c-0.877-1.333-1.415-1.45-2.197-2.821
	c3.029-4.03,4.351-1.723,5.085,0.943c1.909,7.402,4.842,5.246,7.291,4.891c2.493-0.351,0.338,0.081,2.59,0.667
	c2.153,0.549,1.122,0,2.639-0.39c5.135-1.256,1.178,8.696,0.639,9.791c-2.788,0.35-2.249-0.273-4.259-0.471
	c-4.058-0.429,0.246,2.432-9.34-0.706c-9.197-2.934-7.239-3.601-9.148,2.785c-2.103-0.157-2.003-0.551-3.958-1.213
	c-0.748-0.285-1.177-0.436-1.47-0.522l-0.097-0.032c-0.781-0.272,0-0.034-1.614-1.563c-1.419-1.332-4.89-1.645-7.339-2.938
	c0-2.112,1.857-3.874-0.391-6.385c-0.732-0.196-11.151,0.239-12.812,0.588c-3.373,0.706-3.964,3.563-8.609,2.938
	c-2.543-0.353-1.661-0.117-2.3-1.606c0.832-0.821,0-0.393,1.423-0.9c0.536-0.195,0.734-0.117,1.271-0.195
	c7.53-1.138,3.666-4.939,8.362-8.579c3.913-3.134,0.832,0.039,2.984-3.762c2.642-0.234,2.299,1.056,4.549-0.039
	c1.861-0.939,1.271-1.762,3.912-1.843c2.348,2.354,1.857,3.763,5.675,5.562c1.516,0.71,2.445,1.099,3.422,2.393
	c1.762,2.506,0.246,1.684,0.932,3.406c0.146-0.078,0.338-0.161,0.536-0.235l0.097-0.046c2.057-0.983-1.027-1.294,2.299-4.225
	c-0.975-0.706-1.685-1.201-2.299-1.552l-0.097-0.053c-2.592-1.525-1.565-0.118-4.89-4.269c-0.881-1.178-1.127-1.252-1.075-3.056
	c2.394-0.429,2.836,1.293,4.987,3.212c0.293,0.275,0.636,0.51,0.978,0.744L285.434,187.084L285.434,187.084z M337.669,292.527
	c-2.148,1.095-2.445,3.605-4.057,5.012c-1.762,1.606-4.11,0.865-4.794,3.839c-0.88,3.719,1.467,2.584-1.126,7.441
	c-0.926,1.799-0.977,6.302,0.442,7.638c4.254,4.109,6.555-6.268,7.532-9.518c0.732-2.31,1.419-4.934,2.201-7.089
	C338.652,297.539,339.773,295.505,337.669,292.527z M330.628,183.255c0.34,4.783,3.177,6.623,5.187,8.813
	c-0.247,2.273-0.783,1.685-0.736,4.857c2.396,1.728,4.155,2.78,7.287,1.922c0.438-3.84-0.782-3.645-1.955-6.269
	c0.195-0.314,0.732-0.705,0.829-0.782c0.88-1.173,0.442,0.468,0.88-1.528c-2.298-0.742-6.016-3.094-6.307-6.186
	c1.124-0.899,0.78-0.353,1.609-0.899c1.81-1.178,0.443,0.623,1.517-1.372c-0.926-1.801-1.955-2.117-4.205-1.217
	C333.759,180.988,331.166,182.827,330.628,183.255z M310.624,184.511c-1.516-2.112-1.419-3.172-4.354-3.251
	c-1.172,1.256-2.543,3.134-3.178,5.052c-0.978,2.899-0.293,0.9-0.196,4.034c-0.05,0.118,0,0.277,0,0.393
	c-0.05,1.879-0.49-0.353-0.198,1.372c2.301-0.471,0.54-0.432,2.252-0.983c1.614-0.549,6.556-2.038,7.974-1.684
	c3.372,0.783,6.211,3.45,10.026,0.783c-0.197-3.406-4.306-4.701-7.142-6.19c0.148-3.13,0.978-0.663,0.78-3.68
	c-0.977-0.038-1.564-0.195-2.493,0.196c-2.2,0.978-0.978,1.256-0.978,1.606c0.098,1.685,2.202-0.35-0.048,1.727
	C312.434,184.433,311.404,184.433,310.624,184.511z M253.495,160.777c-0.093,5.483,1.809,3.641,3.619,6.346
	c-0.828,2.311-0.976,0.512-1.903,2.896c-0.832,1.999,0.195,0.2-0.345,3.684c1.42,0.078,3.521-0.429,5.381-0.588
	c2.643-0.235,2.595-0.471,3.523-3.173c-1.467-1.799-2.935-3.601-4.451-5.402c-1.911-2.899,0-0.904-0.588-3.332
	c-0.438-0.861-0.832-1.719-1.223-2.584C254.964,159.488,255.21,159.25,253.495,160.777L253.495,160.777z"/>
<path style="fill:#D80027;" d="M265.411,99.289V76.884h16.444L256,40.177l-25.854,36.707h16.444v22.409l0.146-0.009l0.146-0.009
	l1.458-0.092l0.146-0.008l0.146-0.009l0.148-0.007l0.734-0.038l0.148-0.007l0.146-0.007l2.498-0.094l0.146-0.004l0.109-0.005h0.04
	h0.025c1.124-0.03,2.248-0.045,3.376-0.045c1.139,0,2.27,0.013,3.4,0.043l0.04,0.002l0.109,0.002
	c1.033,0.025,2.059,0.065,3.086,0.117l0.146,0.008l0.077,0.002l0.07,0.005l0.146,0.007
	C263.856,99.185,264.635,99.234,265.411,99.289L265.411,99.289z"/>
<path style="fill:#21D0C3;" d="M151.843,138.534l-15.842-15.842l11.626-11.627l-44.237-7.675l7.675,44.237L122.693,136
	l15.846,15.846l0.097-0.11l0.097-0.111l0.965-1.096l0.099-0.109l0.097-0.111l0.098-0.109l0.493-0.546l0.098-0.109l0.099-0.11
	l1.7-1.831l0.102-0.106l0.073-0.08l0.028-0.028l0.018-0.018c0.773-0.815,1.557-1.621,2.355-2.419
	c0.805-0.805,1.614-1.596,2.435-2.374l0.03-0.027l0.079-0.076c0.748-0.712,1.5-1.41,2.265-2.099l0.109-0.098l0.057-0.053
	l0.052-0.045l0.109-0.099C150.671,139.559,151.257,139.044,151.843,138.534L151.843,138.534z"/>
<path style="fill:#FAD24D;" d="M99.289,246.589H76.885v-16.444L40.177,256l36.707,25.853V265.41h22.409l-0.009-0.146l-0.009-0.146
	l-0.092-1.458l-0.008-0.146l-0.009-0.146l-0.007-0.148l-0.038-0.734l-0.007-0.148l-0.007-0.146l-0.094-2.498l-0.004-0.146
	l-0.005-0.109v-0.04v-0.025c-0.03-1.124-0.045-2.248-0.045-3.376c0-1.139,0.013-2.27,0.043-3.4l0.002-0.04l0.002-0.109
	c0.025-1.033,0.065-2.059,0.117-3.086l0.008-0.146l0.002-0.077l0.005-0.07l0.007-0.146
	C99.185,248.144,99.235,247.365,99.289,246.589L99.289,246.589z"/>
<path style="fill:#D80027;" d="M138.535,360.157l-15.842,15.842l-11.627-11.626l-7.675,44.237l44.237-7.675l-11.626-11.627
	l15.846-15.846l-0.11-0.097l-0.111-0.097l-1.096-0.965l-0.109-0.099l-0.111-0.097l-0.109-0.098l-0.546-0.493l-0.109-0.098
	l-0.11-0.099l-1.831-1.7l-0.106-0.102l-0.08-0.073l-0.028-0.028l-0.018-0.018c-0.815-0.773-1.621-1.557-2.419-2.355
	c-0.805-0.805-1.596-1.614-2.374-2.435l-0.027-0.03l-0.076-0.079c-0.712-0.748-1.41-1.5-2.099-2.265l-0.098-0.109l-0.053-0.057
	l-0.045-0.052l-0.099-0.109C139.56,361.329,139.045,360.743,138.535,360.157L138.535,360.157z"/>
<path style="fill:#FAD24D;" d="M246.59,412.711v22.404h-16.444L256,471.822l25.853-36.707H265.41v-22.409l-0.146,0.009l-0.146,0.009
	l-1.458,0.092l-0.146,0.008l-0.146,0.009l-0.148,0.007l-0.734,0.04l-0.148,0.007l-0.146,0.007l-2.498,0.094l-0.146,0.002
	l-0.109,0.006h-0.04h-0.025c-1.124,0.03-2.248,0.045-3.376,0.045c-1.139,0-2.27-0.013-3.4-0.043l-0.04-0.002l-0.109-0.002
	c-1.033-0.025-2.059-0.065-3.086-0.117l-0.146-0.008l-0.077-0.002l-0.07-0.005l-0.146-0.007
	C248.145,412.815,247.366,412.765,246.59,412.711L246.59,412.711z"/>
<path style="fill:#21D0C3;" d="M360.158,373.466L376,389.308l-11.626,11.627l44.237,7.675l-7.675-44.237L389.308,376l-15.846-15.846
	l-0.097,0.11l-0.097,0.111l-0.965,1.096l-0.099,0.109l-0.097,0.111l-0.098,0.109l-0.493,0.546l-0.098,0.109l-0.099,0.11l-1.7,1.831
	l-0.102,0.106l-0.073,0.08l-0.028,0.028l-0.018,0.018c-0.773,0.815-1.557,1.621-2.355,2.419c-0.805,0.805-1.614,1.596-2.435,2.374
	l-0.03,0.027l-0.079,0.076c-0.748,0.712-1.5,1.41-2.265,2.099l-0.109,0.098l-0.057,0.053l-0.052,0.045l-0.109,0.099
	C361.33,372.44,360.744,372.955,360.158,373.466L360.158,373.466z"/>
<path style="fill:#D80027;" d="M412.711,265.41h22.404v16.444L471.822,256l-36.707-25.854v16.444h-22.409l0.009,0.146l0.009,0.146
	l0.092,1.458l0.008,0.146l0.009,0.146l0.007,0.148l0.038,0.734l0.007,0.148l0.007,0.146l0.094,2.498l0.002,0.146l0.006,0.109v0.04
	v0.025c0.03,1.124,0.045,2.248,0.045,3.376c0,1.139-0.013,2.27-0.043,3.4l-0.002,0.04l-0.002,0.109
	c-0.025,1.033-0.065,2.059-0.117,3.086l-0.008,0.146l-0.002,0.077l-0.005,0.07l-0.007,0.146
	C412.815,263.856,412.766,264.634,412.711,265.41L412.711,265.41z"/>
<path style="fill:#FAD24D;" d="M373.466,151.842L389.308,136l11.627,11.626l7.675-44.237l-44.237,7.675L376,122.692l-15.846,15.846
	l0.11,0.097l0.111,0.097l1.096,0.965l0.109,0.099l0.111,0.097l0.109,0.098l0.546,0.493l0.109,0.098l0.11,0.099l1.831,1.7
	l0.106,0.102l0.08,0.073l0.028,0.028l0.018,0.018c0.815,0.773,1.621,1.557,2.419,2.355c0.805,0.805,1.596,1.614,2.374,2.435
	l0.027,0.03l0.076,0.079c0.712,0.748,1.41,1.5,2.099,2.265l0.098,0.109l0.053,0.057l0.045,0.052l0.099,0.109
	C372.441,150.67,372.956,151.256,373.466,151.842L373.466,151.842z"/>
</svg>
