<svg viewBox="0 0 40 40" xmlns="http://www.w3.org/2000/svg" xmlns:xlink="http://www.w3.org/1999/xlink">
  <title>
    github
  </title>
  <use xlink:href="#path0_fill" transform="translate(10.64 19.5)" fill="#FFF"/>
  <use xlink:href="#path1_fill" fill="#FFF"/>
  <defs>
    <path id="path0_fill" d="M16.8606.6601c-.8272-.6037-1.7796-.7295-2.7697-.629-1.1029.1133-2.1932.302-3.2961.3775-.965.0628-1.955.0754-2.92.0125C6.7592.3457 5.6438.1444 4.5284.0438c-.4887-.0503-.99-.0378-1.4788.0503C1.7714.333.9567 1.1633.4304 2.3205-.0333 3.3645-.096 4.4589.117 5.5658c.2631 1.3962.9775 2.4905 2.2433 3.1824 1.153.6163 2.3937.9056 3.6846.9937 1.0778.0755 2.1556.0755 3.2334.1132v-.0629c.8647 0 1.7295.0126 2.5942 0 1.2157-.0252 2.4063-.2516 3.5467-.6667 1.2909-.4654 2.2559-1.2956 2.7572-2.5912.5264-1.371.5389-2.7547 0-4.1258-.2632-.717-.7018-1.3081-1.3159-1.7484zM5.5562 6.786c-.6016.7044-1.4914.7547-2.1556.1258-.3384-.327-.5765-.717-.7144-1.1698-.3634-1.1824-.3007-2.327.3635-3.4088.2506-.4025.589-.717 1.0653-.8302.6015-.1258 1.0652.1006 1.4537.5409.589.6792.7645 1.4968.8021 2.3647-.0376.868-.2256 1.6856-.8146 2.3774zm9.7879-.0252c-.6517.7674-1.6543.78-2.306 0-.6516-.7924-.8522-1.7106-.777-2.7043.0502-.7422.2757-1.434.777-2.0126.6643-.7673 1.6543-.7673 2.3186 0 .5765.6792.7645 1.4968.8021 2.3647-.0502.868-.2382 1.673-.8147 2.3522z"/>
    <path id="path1_fill" d="M32.7476 0H7.106C3.1958 0 0 3.2075 0 7.132v25.736C0 36.7925 3.1958 40 7.106 40h25.6416c3.9102 0 7.106-3.2075 7.106-7.1321V7.1321C39.8536 3.2075 36.6578 0 32.7476 0zm-.5013 24.7799c-.4136 1.7107-1.3535 3.044-2.7947 4.0377-1.153.7925-2.4439 1.2076-3.7849 1.4969-1.8047.3899-3.6344.478-5.4767.4654-1.4914 0-2.9828-.0629-4.4616-.239-1.6418-.1887-3.1958-.6541-4.6747-1.3962-1.742-.8805-2.895-2.3019-3.3838-4.1887-.564-2.2013-.6642-4.4277-.0626-6.6415.3008-1.107.8271-2.1132 1.554-2.9937.1128-.1258.1128-.239.0752-.39-.4261-1.4717-.4637-2.9685-.0501-4.4528.1128-.3774.2757-.7422.4135-1.1195.0376-.1132.1128-.151.2382-.151 1.2156.0252 2.3561.302 3.3963.9686.7018.4528 1.3786.9308 2.0553 1.4088.1254.0881.2256.1132.376.0755 1.9175-.4529 3.8726-.5912 5.8402-.4403.9274.0755 1.8423.2516 2.7572.4025.1378.0252.2256.0126.3384-.0754.9023-.6919 1.8297-1.3459 2.8699-1.8114.8272-.3773 1.7044-.503 2.6068-.5157.0627 0 .1504.0503.1754.1132.5013 1.0441.7395 2.151.7269 3.3208-.0125.7924-.1253 1.5723-.3634 2.327-.0376.1132-.0125.1887.0627.2768 1.1154 1.3585 1.7169 2.9434 1.9049 4.6792.1379 1.6352.0376 3.2453-.3384 4.8428z"/>
  </defs>
</svg>