<svg viewBox="0 0 40 40" xmlns="http://www.w3.org/2000/svg" xmlns:xlink="http://www.w3.org/1999/xlink">
  <title>
    twitter
  </title>
  <use xlink:href="#path0_fill" fill="#FFF"/>
  <defs>
    <path id="path0_fill" d="M19.9342.0067c4.1172 0 8.2343-.0133 12.3515.0067 3.2406.0133 5.505 1.6058 6.9327 4.4577.4715.9462.6309 1.9857.6309 3.0385 0 8.3292.0132 16.6583-.0067 24.9875-.0066 3.5915-2.4171 6.5567-5.9167 7.3296-.5379.1199-1.0957.1533-1.6469.1533-8.2343.0066-16.4685-.02-24.7028.02-3.7852.0133-6.7867-2.7787-7.3976-5.8771-.1063-.5331-.166-1.0795-.166-1.6192-.0133-8.4158-.02-16.8182 0-25.2273.0066-2.0457.83-3.7581 2.291-5.1774C3.7976.6597 5.584-.0066 7.6492 0c4.0972.0134 8.1945.0067 12.285.0067zM7.4832 17.638c-.0133 1.3526.4316 2.4854 1.2484 3.4715.8102.9795 1.8328 1.6326 3.1543 1.9191-.777.2665-1.5008.2465-2.2844.1066.9563 2.2988 2.5434 3.6448 5.0469 3.8314-2.3442 1.8257-4.9805 2.4921-7.8691 2.2922a.3661.3661 0 0 0 .1129.0999c2.9285 1.7858 6.1093 2.5321 9.5159 2.2389 4.0839-.3531 7.5238-2.019 10.1999-5.1641 2.5168-2.9651 3.8582-6.3901 3.8648-10.2948 0-.5997.1992-.9262.6441-1.2727.7969-.613 1.4543-1.3793 2.052-2.2855-.3785.1333-.6907.2599-1.016.3598-.3188.1-.6375.1866-.9563.2665-.3187.0733-.6441.1333-.9695.1999 1.0492-.7596 1.8062-1.6924 2.2179-2.9918-.1726.0866-.2722.1333-.3718.1866-.8699.4797-1.7863.8129-2.7492 1.0461-.2192.0533-.3785.0333-.5578-.1399-1.3813-1.346-3.0547-1.7591-4.8941-1.366-2.7691.5931-4.5422 3.0918-4.2765 5.9237.0199.2132.0531.4265.0863.6663-4.582-.3198-8.2808-2.2655-11.2757-5.7704-1.2351 2.8386-.9296 5.284 1.5406 7.323-.8765 0-1.6468-.3132-2.4636-.6463z"/>
  </defs>
</svg>