<svg viewBox="0 0 40 40" xmlns="http://www.w3.org/2000/svg" xmlns:xlink="http://www.w3.org/1999/xlink">
  <title>
    facebook
  </title>
  <use xlink:href="#path0_fill" fill="#FFF"/>
  <defs>
    <path id="path0_fill" d="M27.5107 39.9665V24.5009h5.1532c.259-2.0189.518-4.0046.7836-6.0369h-5.9302c-.0066-.1266-.0133-.2132-.0133-.2998 0-1.1795-.0132-2.3522.0067-3.5316.0066-.4531.0465-.9195.1726-1.346.2989-1.0328.9762-1.5059 2.1649-1.5525 1.129-.04 2.2579-.0467 3.3868-.0667h.4051V6.2568c-.7504-.0533-1.5008-.1266-2.2446-.1532-1.368-.0467-2.7426-.1466-4.104.1-2.55.4597-4.4294 1.8057-5.4188 4.2711-.4782 1.1794-.5844 2.4321-.5977 3.6915-.0133 1.2993 0 2.5987 0 3.898v.3998h-5.1665v6.0303h5.1532v15.4855c-.1195.0067-.2258.0133-.332.0133-4.4494 0-8.8987-.0266-13.348.0067-3.5395.0266-6.3353-2.3988-7.192-5.1507-.2125-.6797-.352-1.4127-.3586-2.119A4099.6608 4099.6608 0 0 1 .0112 7.1697C.0178 5.1907.848 3.525 2.2558 2.139 3.75.6797 5.543 0 7.6215 0c8.2147.0067 16.4227-.0067 24.6373.0067 3.2407.0066 5.5119 1.5858 6.9463 4.4377.4781.9529.6442 2.0057.6442 3.0651 0 8.3292.0132 16.6583-.0067 24.9874-.0066 3.5849-2.4305 6.5634-5.9236 7.3296-.4847.1067-.9894.1466-1.4809.1533-1.5605.02-3.1211.0067-4.6817.0067a11.774 11.774 0 0 0-.2457-.02z"/>
  </defs>
</svg>