<svg viewBox="0 0 12 10" xmlns="http://www.w3.org/2000/svg" xmlns:xlink="http://www.w3.org/1999/xlink">
  <title>
    heart
  </title>
  <use xlink:href="#path0_fill" fill="#FFF"/>
  <defs>
    <path id="path0_fill" d="M5.8978 1.3159c.0438.0425.1082.0433.1573.007.3717-.2752.7286-.5396 1.0966-.7934l.007-.0048c1.164-.8066 2.8136-.588 3.7283.075l.0222.0163c.6542.4876.9581 1.1515 1.0608 1.9312l.0022.0171c.1365 1.0879-.2538 2.0051-.9594 2.8061l-.0252.0284c-.4998.5573-1.0615 1.0727-1.6109 1.5939l-.0104.0099c-.9826.9297-1.9715 1.8472-2.9605 2.7707a2.3526 2.3526 0 0 0-.0339.0323c-.0698.0679.0699-.0678 0 0-.0356.0347-.0716.0692-.112.098-.1807.1289-.3536.1292-.53-.014-.0301-.0243-.058-.0513-.0865-.0776-.4678-.4315-.93-.874-1.3982-1.3109a14.2883 14.2883 0 0 1-.018-.0168c-.916-.8588-1.8384-1.7115-2.7417-2.5703l-.0042-.004C.8507 5.3093.3387 4.63.1176 3.788a2.7748 2.7748 0 0 1-.0145-.0576c-.2248-.9373-.0912-1.8263.4913-2.6199a3.92 3.92 0 0 1 .028-.0376c.3675-.4883.8882-.78 1.4892-.934l.021-.0053c.8609-.2178 1.7092-.1946 2.484.2588.019.0111.0379.0224.0567.0337.4263.2563.8058.5808 1.209.8767a.1473.1473 0 0 1 .0155.0131z"/>
  </defs>
</svg>