<svg width="57" height="57" xmlns="http://www.w3.org/2000/svg" xmlns:xlink="http://www.w3.org/1999/xlink"><use xlink:href="#path0_fill" fill="#2D9CDB"/><defs><path id="path0_fill" d="M28.367.01c5.859 0 11.717-.02 17.576.01 4.612.018 7.834 2.287 9.866 6.351.67 1.349.897 2.83.897 4.33 0 11.87.02 23.738-.01 35.607-.008 5.118-3.439 9.344-8.419 10.445-.765.171-1.559.218-2.343.218-11.718.01-23.435-.028-35.153.029-5.386.019-9.658-3.96-10.527-8.375a11.874 11.874 0 0 1-.236-2.307 9117.253 9117.253 0 0 1 0-35.95c.01-2.914 1.181-5.354 3.26-7.377 2.126-2.05 4.668-3 7.607-2.99 5.83.018 11.66.009 17.482.009zM10.649 25.134c-.02 1.927.614 3.542 1.776 4.947 1.153 1.396 2.608 2.326 4.489 2.735-1.106.38-2.136.35-3.25.151 1.36 3.276 3.618 5.194 7.18 5.46-3.335 2.602-7.086 3.551-11.197 3.267a.521.521 0 0 0 .16.142c4.168 2.545 8.694 3.608 13.542 3.19 5.812-.503 10.707-2.877 14.515-7.358 3.581-4.226 5.49-9.106 5.5-14.67 0-.855.283-1.32.916-1.814 1.134-.874 2.07-1.966 2.92-3.257-.539.19-.983.37-1.446.513-.453.142-.907.266-1.36.38-.454.104-.917.19-1.38.285 1.493-1.083 2.57-2.412 3.156-4.264-.246.124-.387.19-.53.266-1.237.684-2.541 1.158-3.911 1.49-.312.077-.539.048-.794-.199-1.966-1.918-4.347-2.506-6.965-1.946-3.94.845-6.463 4.406-6.085 8.441.028.304.075.608.123.95-6.52-.456-11.784-3.229-16.046-8.223-1.757 4.045-1.323 7.53 2.193 10.435-1.248 0-2.344-.446-3.506-.921z"/></defs></svg>
