<svg version="1.1" id="Layer_1" xmlns="http://www.w3.org/2000/svg" xmlns:xlink="http://www.w3.org/1999/xlink" x="0px" y="0px"
	 viewBox="0 0 512 512" style="enable-background:new 0 0 512 512;" xml:space="preserve">
<path style="fill:#7D5A50;" d="M132.414,273.655c-64.249,0-78.854,69.988-79.448,147.096c-0.024,3.209,1.942,6.098,4.956,7.448  c10.321,4.623,23.936,8.292,37.899,10.676l72.969,0.038c14.05-2.383,27.743-6.067,38.116-10.713c3.014-1.351,4.98-4.239,4.956-7.448  C211.267,343.644,196.663,273.655,132.414,273.655z"/>
<path style="fill:#D29B6E;" d="M220.69,494.345v-11.114c0-9.504-5.092-18.279-13.344-22.994l-39.554-22.602  c-5.501-3.144-8.896-8.993-8.896-15.329v-16.237h-52.964v16.237c0,6.336-3.395,12.185-8.896,15.329l-39.553,22.602  c-8.252,4.715-13.344,13.49-13.344,22.994v11.114c0,9.751,7.904,17.655,17.655,17.655h141.241  C212.786,512,220.69,504.096,220.69,494.345z"/>
<path style="fill:#F0C087;" d="M176.552,344.276v46.798c0,9.302-4.881,17.922-12.857,22.709l-22.197,13.319  c-5.591,3.354-12.576,3.354-18.167,0l-22.197-13.319c-7.977-4.786-12.857-13.406-12.857-22.709v-46.798c0,0,52.966,0,70.621-17.655  L176.552,344.276z"/>
<g>
	<path style="fill:#E4EAF6;" d="M207.347,460.237l-25.77-14.726c-4.868,6.908-23.315,31.06-49.163,40.006   c-25.848-8.946-44.295-33.098-49.163-40.006l-25.769,14.726c-8.252,4.715-13.344,13.49-13.344,22.994v11.114   c0,9.751,7.904,17.655,17.655,17.655h141.241c9.751,0,17.655-7.904,17.655-17.655v-11.114   C220.69,473.727,215.597,464.952,207.347,460.237z"/>
	<path style="fill:#E4EAF6;" d="M264.828,44.138H52.966c-19.421,0-35.31,15.89-35.31,35.31v123.586   c0,19.421,15.89,35.31,35.31,35.31h114.759v33.482c0,3.933,4.755,5.901,7.534,3.121l36.604-36.602h52.966   c19.421,0,35.31-15.89,35.31-35.31V79.448C300.138,60.028,284.248,44.138,264.828,44.138z"/>
</g>
<path style="fill:#D7DEED;" d="M211.862,44.138v114.759c0,19.421,15.89,35.31,35.31,35.31h52.966v8.828  c0,3.066-0.532,5.99-1.283,8.828h-51.682c-29.205,0-52.966-23.761-52.966-52.966V44.138H211.862z"/>
<path style="fill:#707487;" d="M176.552,123.586c0-29.207-23.758-52.966-52.966-52.966s-52.966,23.758-52.966,52.966v26.483  c0,29.207,23.758,52.966,52.966,52.966c11.422,0,21.981-3.67,30.642-9.842l7.255,7.255c1.725,1.725,3.982,2.586,6.241,2.586  s4.518-0.862,6.241-2.586c3.448-3.448,3.448-9.035,0-12.483l-7.255-7.255c6.172-8.66,9.842-19.219,9.842-30.641V123.586z   M151.896,165.897c-3.448-3.448-9.035-3.448-12.483,0s-3.448,9.035,0,12.483l1.997,1.997c-5.25,3.101-11.295,5.002-17.824,5.002  c-19.474,0-35.31-15.84-35.31-35.31v-26.483c0-19.47,15.837-35.31,35.31-35.31s35.31,15.84,35.31,35.31v26.483  c0,6.529-1.902,12.573-5.003,17.824L151.896,165.897z"/>
<path style="fill: #FAD24D;" d="M247.172,0h211.862c19.421,0,35.31,15.89,35.31,35.31v123.586c0,19.421-15.89,35.31-35.31,35.31  H344.276v33.482c0,3.933-4.755,5.901-7.534,3.121l-36.604-36.602h-52.966c-19.421,0-35.31-15.89-35.31-35.31V35.31  C211.862,15.89,227.752,0,247.172,0z"/>
<path style="fill:#D29B6E;" d="M468.333,443.763l-41.981-15.743c-6.891-2.584-11.456-10.73-11.456-18.089h-70.621  c0,7.359-4.565,15.505-11.456,18.089l-41.981,15.743c-10.336,3.876-17.184,13.758-17.184,24.797v25.785  c0,9.751,7.904,17.655,17.655,17.655h176.552c9.751,0,17.655-7.904,17.655-17.655v-25.785  C485.517,457.521,478.669,447.639,468.333,443.763z"/>
<path style="fill: #FAD24D;" d="M468.333,443.763l-33.955-12.733l-43.489,36.241c-6.548,5.457-16.058,5.457-22.605,0l-43.489-36.241  l-33.955,12.733c-10.336,3.876-17.184,13.758-17.184,24.797v25.785c0,9.751,7.904,17.655,17.655,17.655h176.552  c9.751,0,17.655-7.904,17.655-17.655v-25.785C485.517,457.521,478.669,447.639,468.333,443.763z"/>
<path style="fill:#F0C087;" d="M438.869,302.487l-5.508,82.624c-0.513,7.701-4.361,14.794-10.535,19.425l-18.522,13.891  c-4.584,3.438-10.159,5.297-15.89,5.297h-17.655c-5.73,0-11.306-1.858-15.89-5.297l-18.522-13.892  c-6.174-4.63-10.022-11.724-10.535-19.425l-5.508-82.624c-1.358-20.38,14.807-37.659,35.232-37.659h48.1  C424.062,264.828,440.227,282.106,438.869,302.487z"/>

<path style="fill:#5A4146;" d="M403.636,264.828h-48.1c-20.426,0-36.591,17.279-35.232,37.658l2.196,32.941  c3.036-0.209,78.753-5.652,115.833-24.909l0.535-8.032C440.227,282.106,424.063,264.828,403.636,264.828z"/>

<path style="fill:#FFFFFF;" d="M405.845,148.082L382.517,47.017c-2.784-12.09-13.396-20.534-25.802-20.534h-7.224  c-12.405,0-23.017,8.444-25.802,20.526l-23.328,101.074c-1.095,4.755,1.87,9.492,6.621,10.591c4.75,1.069,9.483-1.866,10.586-6.616  l6.571-28.471h57.929l6.571,28.47c0.948,4.082,4.577,6.845,8.595,6.84c0.655,0,1.327-0.073,1.992-0.224  C403.975,157.574,406.94,152.836,405.845,148.082z M328.214,105.931l12.683-54.957c0.922-4.025,4.457-6.836,8.595-6.836h7.224  c4.138,0,7.672,2.81,8.595,6.845l12.682,54.948H328.214z"/>
</svg>
