<svg version="1.1" id="Layer_1" xmlns="http://www.w3.org/2000/svg" xmlns:xlink="http://www.w3.org/1999/xlink" x="0px" y="0px"
	 viewBox="0 0 512.001 512.001" style="enable-background:new 0 0 512.001 512.001;" xml:space="preserve">
<path style="fill:#FF5023;" d="M477.846,302.812l-1.608,0.536c22.507-25.336,35.763-56.393,35.763-89.957
	c0-85.321-85.634-154.485-191.268-154.485c-105.635,0-191.268,69.165-191.268,154.485S215.1,367.877,320.734,367.877
	c36.956,0,71.455-8.474,100.705-23.134l70.071,40.041L477.846,302.812z"/>
<path style="fill:#D80027;" d="M320.732,58.906c-105.635,0-191.268,69.165-191.268,154.485s85.634,154.485,191.268,154.485"/>
<ellipse style="fill:#FFDA44;" cx="191.27" cy="282.642" rx="191.27" ry="154.488"/>
<path style="fill:#FF9811;" d="M191.268,128.158C85.634,128.158,0,197.322,0,282.643c0,35.474,14.814,68.15,39.704,94.228
	L27,453.095l66.172-37.814c28.683,13.871,62.234,21.849,98.096,21.849L191.268,128.158L191.268,128.158z"/>
<circle style="fill:#FFFFFF;" cx="191.27" cy="255.672" r="79.911"/>
<path style="fill:#FFF0B4;" d="M144.832,255.677c0-38.39,27.075-70.444,63.174-78.138c-5.399-1.151-10.994-1.769-16.736-1.769
	c-44.133,0-79.909,35.775-79.909,79.907s35.775,79.909,79.909,79.909c5.742,0,11.336-0.619,16.736-1.769
	C171.907,326.122,144.832,294.067,144.832,255.677z"/>
<path style="fill:#818085;" d="M167.088,349.218v16.12c0,13.354,10.824,24.181,24.181,24.181c13.354,0,24.181-10.827,24.181-24.181
	v-16.12H167.088z"/>
<path style="fill:#565659;" d="M167.088,349.218v16.12c0,13.354,10.824,24.181,24.181,24.181c0-12.325,0-40.301,0-40.301
	L167.088,349.218L167.088,349.218z"/>
<rect x="154.994" y="326.9" style="fill:#DEDDE0;" width="72.543" height="35.381"/>
<rect x="154.994" y="326.9" style="fill:#BDBCC1;" width="36.309" height="35.381"/>
</svg>
